<?xml version="1.0" encoding="utf-8" standalone="no"?>
<!DOCTYPE svg PUBLIC "-//W3C//DTD SVG 1.1//EN"
  "http://www.w3.org/Graphics/SVG/1.1/DTD/svg11.dtd">
<svg xmlns:xlink="http://www.w3.org/1999/xlink" width="1152pt" height="432pt" viewBox="0 0 1152 432" xmlns="http://www.w3.org/2000/svg" version="1.1">
 <metadata>
  <rdf:RDF xmlns:dc="http://purl.org/dc/elements/1.1/" xmlns:cc="http://creativecommons.org/ns#" xmlns:rdf="http://www.w3.org/1999/02/22-rdf-syntax-ns#">
   <cc:Work>
    <dc:type rdf:resource="http://purl.org/dc/dcmitype/StillImage"/>
    <dc:date>2026-07-07T12:42:07.518343</dc:date>
    <dc:format>image/svg+xml</dc:format>
    <dc:creator>
     <cc:Agent>
      <dc:title>Matplotlib v3.10.8, https://matplotlib.org/</dc:title>
     </cc:Agent>
    </dc:creator>
   </cc:Work>
  </rdf:RDF>
 </metadata>
 <defs>
  <style type="text/css">*{stroke-linejoin: round; stroke-linecap: butt}</style>
 </defs>
 <g id="figure_1">
  <g id="patch_1">
   <path d="M 0 432 
L 1152 432 
L 1152 0 
L 0 0 
z
" style="fill: #ffffff"/>
  </g>
  <g id="axes_1">
   <g id="patch_2">
    <path d="M 47.81 390.04 
L 1141.2 390.04 
L 1141.2 25.44 
L 47.81 25.44 
z
" style="fill: #ffffff"/>
   </g>
   <g id="matplotlib.axis_1">
    <g id="xtick_1">
     <g id="line2d_1">
      <defs>
       <path id="md84cecf52d" d="M 0 0 
L 0 3.5 
" style="stroke: #000000; stroke-width: 0.8"/>
      </defs>
      <g>
       <use xlink:href="#md84cecf52d" x="94.568744" y="390.04" style="stroke: #000000; stroke-width: 0.8"/>
      </g>
     </g>
     <g id="text_1">
      <!-- 0 -->
      <g transform="translate(91.387494 404.638438) scale(0.1 -0.1)">
       <defs>
        <path id="DejaVuSans-30" d="M 2034 4250 
Q 1547 4250 1301 3770 
Q 1056 3291 1056 2328 
Q 1056 1369 1301 889 
Q 1547 409 2034 409 
Q 2525 409 2770 889 
Q 3016 1369 3016 2328 
Q 3016 3291 2770 3770 
Q 2525 4250 2034 4250 
z
M 2034 4750 
Q 2819 4750 3233 4129 
Q 3647 3509 3647 2328 
Q 3647 1150 3233 529 
Q 2819 -91 2034 -91 
Q 1250 -91 836 529 
Q 422 1150 422 2328 
Q 422 3509 836 4129 
Q 1250 4750 2034 4750 
z
" transform="scale(0.015625)"/>
       </defs>
       <use xlink:href="#DejaVuSans-30"/>
      </g>
     </g>
    </g>
    <g id="xtick_2">
     <g id="line2d_2">
      <g>
       <use xlink:href="#md84cecf52d" x="241.608819" y="390.04" style="stroke: #000000; stroke-width: 0.8"/>
      </g>
     </g>
     <g id="text_2">
      <!-- 50 -->
      <g transform="translate(235.246319 404.638438) scale(0.1 -0.1)">
       <defs>
        <path id="DejaVuSans-35" d="M 691 4666 
L 3169 4666 
L 3169 4134 
L 1269 4134 
L 1269 2991 
Q 1406 3038 1543 3061 
Q 1681 3084 1819 3084 
Q 2600 3084 3056 2656 
Q 3513 2228 3513 1497 
Q 3513 744 3044 326 
Q 2575 -91 1722 -91 
Q 1428 -91 1123 -41 
Q 819 9 494 109 
L 494 744 
Q 775 591 1075 516 
Q 1375 441 1709 441 
Q 2250 441 2565 725 
Q 2881 1009 2881 1497 
Q 2881 1984 2565 2268 
Q 2250 2553 1709 2553 
Q 1456 2553 1204 2497 
Q 953 2441 691 2322 
L 691 4666 
z
" transform="scale(0.015625)"/>
       </defs>
       <use xlink:href="#DejaVuSans-35"/>
       <use xlink:href="#DejaVuSans-30" transform="translate(63.623047 0)"/>
      </g>
     </g>
    </g>
    <g id="xtick_3">
     <g id="line2d_3">
      <g>
       <use xlink:href="#md84cecf52d" x="388.648895" y="390.04" style="stroke: #000000; stroke-width: 0.8"/>
      </g>
     </g>
     <g id="text_3">
      <!-- 100 -->
      <g transform="translate(379.105145 404.638438) scale(0.1 -0.1)">
       <defs>
        <path id="DejaVuSans-31" d="M 794 531 
L 1825 531 
L 1825 4091 
L 703 3866 
L 703 4441 
L 1819 4666 
L 2450 4666 
L 2450 531 
L 3481 531 
L 3481 0 
L 794 0 
L 794 531 
z
" transform="scale(0.015625)"/>
       </defs>
       <use xlink:href="#DejaVuSans-31"/>
       <use xlink:href="#DejaVuSans-30" transform="translate(63.623047 0)"/>
       <use xlink:href="#DejaVuSans-30" transform="translate(127.246094 0)"/>
      </g>
     </g>
    </g>
    <g id="xtick_4">
     <g id="line2d_4">
      <g>
       <use xlink:href="#md84cecf52d" x="535.68897" y="390.04" style="stroke: #000000; stroke-width: 0.8"/>
      </g>
     </g>
     <g id="text_4">
      <!-- 150 -->
      <g transform="translate(526.14522 404.638438) scale(0.1 -0.1)">
       <use xlink:href="#DejaVuSans-31"/>
       <use xlink:href="#DejaVuSans-35" transform="translate(63.623047 0)"/>
       <use xlink:href="#DejaVuSans-30" transform="translate(127.246094 0)"/>
      </g>
     </g>
    </g>
    <g id="xtick_5">
     <g id="line2d_5">
      <g>
       <use xlink:href="#md84cecf52d" x="682.729045" y="390.04" style="stroke: #000000; stroke-width: 0.8"/>
      </g>
     </g>
     <g id="text_5">
      <!-- 200 -->
      <g transform="translate(673.185295 404.638438) scale(0.1 -0.1)">
       <defs>
        <path id="DejaVuSans-32" d="M 1228 531 
L 3431 531 
L 3431 0 
L 469 0 
L 469 531 
Q 828 903 1448 1529 
Q 2069 2156 2228 2338 
Q 2531 2678 2651 2914 
Q 2772 3150 2772 3378 
Q 2772 3750 2511 3984 
Q 2250 4219 1831 4219 
Q 1534 4219 1204 4116 
Q 875 4013 500 3803 
L 500 4441 
Q 881 4594 1212 4672 
Q 1544 4750 1819 4750 
Q 2544 4750 2975 4387 
Q 3406 4025 3406 3419 
Q 3406 3131 3298 2873 
Q 3191 2616 2906 2266 
Q 2828 2175 2409 1742 
Q 1991 1309 1228 531 
z
" transform="scale(0.015625)"/>
       </defs>
       <use xlink:href="#DejaVuSans-32"/>
       <use xlink:href="#DejaVuSans-30" transform="translate(63.623047 0)"/>
       <use xlink:href="#DejaVuSans-30" transform="translate(127.246094 0)"/>
      </g>
     </g>
    </g>
    <g id="xtick_6">
     <g id="line2d_6">
      <g>
       <use xlink:href="#md84cecf52d" x="829.76912" y="390.04" style="stroke: #000000; stroke-width: 0.8"/>
      </g>
     </g>
     <g id="text_6">
      <!-- 250 -->
      <g transform="translate(820.22537 404.638438) scale(0.1 -0.1)">
       <use xlink:href="#DejaVuSans-32"/>
       <use xlink:href="#DejaVuSans-35" transform="translate(63.623047 0)"/>
       <use xlink:href="#DejaVuSans-30" transform="translate(127.246094 0)"/>
      </g>
     </g>
    </g>
    <g id="xtick_7">
     <g id="line2d_7">
      <g>
       <use xlink:href="#md84cecf52d" x="976.809196" y="390.04" style="stroke: #000000; stroke-width: 0.8"/>
      </g>
     </g>
     <g id="text_7">
      <!-- 300 -->
      <g transform="translate(967.265446 404.638438) scale(0.1 -0.1)">
       <defs>
        <path id="DejaVuSans-33" d="M 2597 2516 
Q 3050 2419 3304 2112 
Q 3559 1806 3559 1356 
Q 3559 666 3084 287 
Q 2609 -91 1734 -91 
Q 1441 -91 1130 -33 
Q 819 25 488 141 
L 488 750 
Q 750 597 1062 519 
Q 1375 441 1716 441 
Q 2309 441 2620 675 
Q 2931 909 2931 1356 
Q 2931 1769 2642 2001 
Q 2353 2234 1838 2234 
L 1294 2234 
L 1294 2753 
L 1863 2753 
Q 2328 2753 2575 2939 
Q 2822 3125 2822 3475 
Q 2822 3834 2567 4026 
Q 2313 4219 1838 4219 
Q 1578 4219 1281 4162 
Q 984 4106 628 3988 
L 628 4550 
Q 988 4650 1302 4700 
Q 1616 4750 1894 4750 
Q 2613 4750 3031 4423 
Q 3450 4097 3450 3541 
Q 3450 3153 3228 2886 
Q 3006 2619 2597 2516 
z
" transform="scale(0.015625)"/>
       </defs>
       <use xlink:href="#DejaVuSans-33"/>
       <use xlink:href="#DejaVuSans-30" transform="translate(63.623047 0)"/>
       <use xlink:href="#DejaVuSans-30" transform="translate(127.246094 0)"/>
      </g>
     </g>
    </g>
    <g id="xtick_8">
     <g id="line2d_8">
      <g>
       <use xlink:href="#md84cecf52d" x="1123.849271" y="390.04" style="stroke: #000000; stroke-width: 0.8"/>
      </g>
     </g>
     <g id="text_8">
      <!-- 350 -->
      <g transform="translate(1114.305521 404.638438) scale(0.1 -0.1)">
       <use xlink:href="#DejaVuSans-33"/>
       <use xlink:href="#DejaVuSans-35" transform="translate(63.623047 0)"/>
       <use xlink:href="#DejaVuSans-30" transform="translate(127.246094 0)"/>
      </g>
     </g>
    </g>
    <g id="text_9">
     <!-- Alignment position -->
     <g transform="translate(547.494063 418.316562) scale(0.1 -0.1)">
      <defs>
       <path id="DejaVuSans-41" d="M 2188 4044 
L 1331 1722 
L 3047 1722 
L 2188 4044 
z
M 1831 4666 
L 2547 4666 
L 4325 0 
L 3669 0 
L 3244 1197 
L 1141 1197 
L 716 0 
L 50 0 
L 1831 4666 
z
" transform="scale(0.015625)"/>
       <path id="DejaVuSans-6c" d="M 603 4863 
L 1178 4863 
L 1178 0 
L 603 0 
L 603 4863 
z
" transform="scale(0.015625)"/>
       <path id="DejaVuSans-69" d="M 603 3500 
L 1178 3500 
L 1178 0 
L 603 0 
L 603 3500 
z
M 603 4863 
L 1178 4863 
L 1178 4134 
L 603 4134 
L 603 4863 
z
" transform="scale(0.015625)"/>
       <path id="DejaVuSans-67" d="M 2906 1791 
Q 2906 2416 2648 2759 
Q 2391 3103 1925 3103 
Q 1463 3103 1205 2759 
Q 947 2416 947 1791 
Q 947 1169 1205 825 
Q 1463 481 1925 481 
Q 2391 481 2648 825 
Q 2906 1169 2906 1791 
z
M 3481 434 
Q 3481 -459 3084 -895 
Q 2688 -1331 1869 -1331 
Q 1566 -1331 1297 -1286 
Q 1028 -1241 775 -1147 
L 775 -588 
Q 1028 -725 1275 -790 
Q 1522 -856 1778 -856 
Q 2344 -856 2625 -561 
Q 2906 -266 2906 331 
L 2906 616 
Q 2728 306 2450 153 
Q 2172 0 1784 0 
Q 1141 0 747 490 
Q 353 981 353 1791 
Q 353 2603 747 3093 
Q 1141 3584 1784 3584 
Q 2172 3584 2450 3431 
Q 2728 3278 2906 2969 
L 2906 3500 
L 3481 3500 
L 3481 434 
z
" transform="scale(0.015625)"/>
       <path id="DejaVuSans-6e" d="M 3513 2113 
L 3513 0 
L 2938 0 
L 2938 2094 
Q 2938 2591 2744 2837 
Q 2550 3084 2163 3084 
Q 1697 3084 1428 2787 
Q 1159 2491 1159 1978 
L 1159 0 
L 581 0 
L 581 3500 
L 1159 3500 
L 1159 2956 
Q 1366 3272 1645 3428 
Q 1925 3584 2291 3584 
Q 2894 3584 3203 3211 
Q 3513 2838 3513 2113 
z
" transform="scale(0.015625)"/>
       <path id="DejaVuSans-6d" d="M 3328 2828 
Q 3544 3216 3844 3400 
Q 4144 3584 4550 3584 
Q 5097 3584 5394 3201 
Q 5691 2819 5691 2113 
L 5691 0 
L 5113 0 
L 5113 2094 
Q 5113 2597 4934 2840 
Q 4756 3084 4391 3084 
Q 3944 3084 3684 2787 
Q 3425 2491 3425 1978 
L 3425 0 
L 2847 0 
L 2847 2094 
Q 2847 2600 2669 2842 
Q 2491 3084 2119 3084 
Q 1678 3084 1418 2786 
Q 1159 2488 1159 1978 
L 1159 0 
L 581 0 
L 581 3500 
L 1159 3500 
L 1159 2956 
Q 1356 3278 1631 3431 
Q 1906 3584 2284 3584 
Q 2666 3584 2933 3390 
Q 3200 3197 3328 2828 
z
" transform="scale(0.015625)"/>
       <path id="DejaVuSans-65" d="M 3597 1894 
L 3597 1613 
L 953 1613 
Q 991 1019 1311 708 
Q 1631 397 2203 397 
Q 2534 397 2845 478 
Q 3156 559 3463 722 
L 3463 178 
Q 3153 47 2828 -22 
Q 2503 -91 2169 -91 
Q 1331 -91 842 396 
Q 353 884 353 1716 
Q 353 2575 817 3079 
Q 1281 3584 2069 3584 
Q 2775 3584 3186 3129 
Q 3597 2675 3597 1894 
z
M 3022 2063 
Q 3016 2534 2758 2815 
Q 2500 3097 2075 3097 
Q 1594 3097 1305 2825 
Q 1016 2553 972 2059 
L 3022 2063 
z
" transform="scale(0.015625)"/>
       <path id="DejaVuSans-74" d="M 1172 4494 
L 1172 3500 
L 2356 3500 
L 2356 3053 
L 1172 3053 
L 1172 1153 
Q 1172 725 1289 603 
Q 1406 481 1766 481 
L 2356 481 
L 2356 0 
L 1766 0 
Q 1100 0 847 248 
Q 594 497 594 1153 
L 594 3053 
L 172 3053 
L 172 3500 
L 594 3500 
L 594 4494 
L 1172 4494 
z
" transform="scale(0.015625)"/>
       <path id="DejaVuSans-20" transform="scale(0.015625)"/>
       <path id="DejaVuSans-70" d="M 1159 525 
L 1159 -1331 
L 581 -1331 
L 581 3500 
L 1159 3500 
L 1159 2969 
Q 1341 3281 1617 3432 
Q 1894 3584 2278 3584 
Q 2916 3584 3314 3078 
Q 3713 2572 3713 1747 
Q 3713 922 3314 415 
Q 2916 -91 2278 -91 
Q 1894 -91 1617 61 
Q 1341 213 1159 525 
z
M 3116 1747 
Q 3116 2381 2855 2742 
Q 2594 3103 2138 3103 
Q 1681 3103 1420 2742 
Q 1159 2381 1159 1747 
Q 1159 1113 1420 752 
Q 1681 391 2138 391 
Q 2594 391 2855 752 
Q 3116 1113 3116 1747 
z
" transform="scale(0.015625)"/>
       <path id="DejaVuSans-6f" d="M 1959 3097 
Q 1497 3097 1228 2736 
Q 959 2375 959 1747 
Q 959 1119 1226 758 
Q 1494 397 1959 397 
Q 2419 397 2687 759 
Q 2956 1122 2956 1747 
Q 2956 2369 2687 2733 
Q 2419 3097 1959 3097 
z
M 1959 3584 
Q 2709 3584 3137 3096 
Q 3566 2609 3566 1747 
Q 3566 888 3137 398 
Q 2709 -91 1959 -91 
Q 1206 -91 779 398 
Q 353 888 353 1747 
Q 353 2609 779 3096 
Q 1206 3584 1959 3584 
z
" transform="scale(0.015625)"/>
       <path id="DejaVuSans-73" d="M 2834 3397 
L 2834 2853 
Q 2591 2978 2328 3040 
Q 2066 3103 1784 3103 
Q 1356 3103 1142 2972 
Q 928 2841 928 2578 
Q 928 2378 1081 2264 
Q 1234 2150 1697 2047 
L 1894 2003 
Q 2506 1872 2764 1633 
Q 3022 1394 3022 966 
Q 3022 478 2636 193 
Q 2250 -91 1575 -91 
Q 1294 -91 989 -36 
Q 684 19 347 128 
L 347 722 
Q 666 556 975 473 
Q 1284 391 1588 391 
Q 1994 391 2212 530 
Q 2431 669 2431 922 
Q 2431 1156 2273 1281 
Q 2116 1406 1581 1522 
L 1381 1569 
Q 847 1681 609 1914 
Q 372 2147 372 2553 
Q 372 3047 722 3315 
Q 1072 3584 1716 3584 
Q 2034 3584 2315 3537 
Q 2597 3491 2834 3397 
z
" transform="scale(0.015625)"/>
      </defs>
      <use xlink:href="#DejaVuSans-41"/>
      <use xlink:href="#DejaVuSans-6c" transform="translate(68.408203 0)"/>
      <use xlink:href="#DejaVuSans-69" transform="translate(96.191406 0)"/>
      <use xlink:href="#DejaVuSans-67" transform="translate(123.974609 0)"/>
      <use xlink:href="#DejaVuSans-6e" transform="translate(187.451172 0)"/>
      <use xlink:href="#DejaVuSans-6d" transform="translate(250.830078 0)"/>
      <use xlink:href="#DejaVuSans-65" transform="translate(348.242188 0)"/>
      <use xlink:href="#DejaVuSans-6e" transform="translate(409.765625 0)"/>
      <use xlink:href="#DejaVuSans-74" transform="translate(473.144531 0)"/>
      <use xlink:href="#DejaVuSans-20" transform="translate(512.353516 0)"/>
      <use xlink:href="#DejaVuSans-70" transform="translate(544.140625 0)"/>
      <use xlink:href="#DejaVuSans-6f" transform="translate(607.617188 0)"/>
      <use xlink:href="#DejaVuSans-73" transform="translate(668.798828 0)"/>
      <use xlink:href="#DejaVuSans-69" transform="translate(720.898438 0)"/>
      <use xlink:href="#DejaVuSans-74" transform="translate(748.681641 0)"/>
      <use xlink:href="#DejaVuSans-69" transform="translate(787.890625 0)"/>
      <use xlink:href="#DejaVuSans-6f" transform="translate(815.673828 0)"/>
      <use xlink:href="#DejaVuSans-6e" transform="translate(876.855469 0)"/>
     </g>
    </g>
   </g>
   <g id="matplotlib.axis_2">
    <g id="ytick_1">
     <g id="line2d_9">
      <defs>
       <path id="m7d2a2f991f" d="M 0 0 
L -3.5 0 
" style="stroke: #000000; stroke-width: 0.8"/>
      </defs>
      <g>
       <use xlink:href="#m7d2a2f991f" x="47.81" y="383.028462" style="stroke: #000000; stroke-width: 0.8"/>
      </g>
     </g>
     <g id="text_10">
      <!-- 0.0 -->
      <g transform="translate(24.906875 386.82768) scale(0.1 -0.1)">
       <defs>
        <path id="DejaVuSans-2e" d="M 684 794 
L 1344 794 
L 1344 0 
L 684 0 
L 684 794 
z
" transform="scale(0.015625)"/>
       </defs>
       <use xlink:href="#DejaVuSans-30"/>
       <use xlink:href="#DejaVuSans-2e" transform="translate(63.623047 0)"/>
       <use xlink:href="#DejaVuSans-30" transform="translate(95.410156 0)"/>
      </g>
     </g>
    </g>
    <g id="ytick_2">
     <g id="line2d_10">
      <g>
       <use xlink:href="#m7d2a2f991f" x="47.81" y="312.913077" style="stroke: #000000; stroke-width: 0.8"/>
      </g>
     </g>
     <g id="text_11">
      <!-- 0.2 -->
      <g transform="translate(24.906875 316.712296) scale(0.1 -0.1)">
       <use xlink:href="#DejaVuSans-30"/>
       <use xlink:href="#DejaVuSans-2e" transform="translate(63.623047 0)"/>
       <use xlink:href="#DejaVuSans-32" transform="translate(95.410156 0)"/>
      </g>
     </g>
    </g>
    <g id="ytick_3">
     <g id="line2d_11">
      <g>
       <use xlink:href="#m7d2a2f991f" x="47.81" y="242.797692" style="stroke: #000000; stroke-width: 0.8"/>
      </g>
     </g>
     <g id="text_12">
      <!-- 0.4 -->
      <g transform="translate(24.906875 246.596911) scale(0.1 -0.1)">
       <defs>
        <path id="DejaVuSans-34" d="M 2419 4116 
L 825 1625 
L 2419 1625 
L 2419 4116 
z
M 2253 4666 
L 3047 4666 
L 3047 1625 
L 3713 1625 
L 3713 1100 
L 3047 1100 
L 3047 0 
L 2419 0 
L 2419 1100 
L 313 1100 
L 313 1709 
L 2253 4666 
z
" transform="scale(0.015625)"/>
       </defs>
       <use xlink:href="#DejaVuSans-30"/>
       <use xlink:href="#DejaVuSans-2e" transform="translate(63.623047 0)"/>
       <use xlink:href="#DejaVuSans-34" transform="translate(95.410156 0)"/>
      </g>
     </g>
    </g>
    <g id="ytick_4">
     <g id="line2d_12">
      <g>
       <use xlink:href="#m7d2a2f991f" x="47.81" y="172.682308" style="stroke: #000000; stroke-width: 0.8"/>
      </g>
     </g>
     <g id="text_13">
      <!-- 0.6 -->
      <g transform="translate(24.906875 176.481526) scale(0.1 -0.1)">
       <defs>
        <path id="DejaVuSans-36" d="M 2113 2584 
Q 1688 2584 1439 2293 
Q 1191 2003 1191 1497 
Q 1191 994 1439 701 
Q 1688 409 2113 409 
Q 2538 409 2786 701 
Q 3034 994 3034 1497 
Q 3034 2003 2786 2293 
Q 2538 2584 2113 2584 
z
M 3366 4563 
L 3366 3988 
Q 3128 4100 2886 4159 
Q 2644 4219 2406 4219 
Q 1781 4219 1451 3797 
Q 1122 3375 1075 2522 
Q 1259 2794 1537 2939 
Q 1816 3084 2150 3084 
Q 2853 3084 3261 2657 
Q 3669 2231 3669 1497 
Q 3669 778 3244 343 
Q 2819 -91 2113 -91 
Q 1303 -91 875 529 
Q 447 1150 447 2328 
Q 447 3434 972 4092 
Q 1497 4750 2381 4750 
Q 2619 4750 2861 4703 
Q 3103 4656 3366 4563 
z
" transform="scale(0.015625)"/>
       </defs>
       <use xlink:href="#DejaVuSans-30"/>
       <use xlink:href="#DejaVuSans-2e" transform="translate(63.623047 0)"/>
       <use xlink:href="#DejaVuSans-36" transform="translate(95.410156 0)"/>
      </g>
     </g>
    </g>
    <g id="ytick_5">
     <g id="line2d_13">
      <g>
       <use xlink:href="#m7d2a2f991f" x="47.81" y="102.566923" style="stroke: #000000; stroke-width: 0.8"/>
      </g>
     </g>
     <g id="text_14">
      <!-- 0.8 -->
      <g transform="translate(24.906875 106.366142) scale(0.1 -0.1)">
       <defs>
        <path id="DejaVuSans-38" d="M 2034 2216 
Q 1584 2216 1326 1975 
Q 1069 1734 1069 1313 
Q 1069 891 1326 650 
Q 1584 409 2034 409 
Q 2484 409 2743 651 
Q 3003 894 3003 1313 
Q 3003 1734 2745 1975 
Q 2488 2216 2034 2216 
z
M 1403 2484 
Q 997 2584 770 2862 
Q 544 3141 544 3541 
Q 544 4100 942 4425 
Q 1341 4750 2034 4750 
Q 2731 4750 3128 4425 
Q 3525 4100 3525 3541 
Q 3525 3141 3298 2862 
Q 3072 2584 2669 2484 
Q 3125 2378 3379 2068 
Q 3634 1759 3634 1313 
Q 3634 634 3220 271 
Q 2806 -91 2034 -91 
Q 1263 -91 848 271 
Q 434 634 434 1313 
Q 434 1759 690 2068 
Q 947 2378 1403 2484 
z
M 1172 3481 
Q 1172 3119 1398 2916 
Q 1625 2713 2034 2713 
Q 2441 2713 2670 2916 
Q 2900 3119 2900 3481 
Q 2900 3844 2670 4047 
Q 2441 4250 2034 4250 
Q 1625 4250 1398 4047 
Q 1172 3844 1172 3481 
z
" transform="scale(0.015625)"/>
       </defs>
       <use xlink:href="#DejaVuSans-30"/>
       <use xlink:href="#DejaVuSans-2e" transform="translate(63.623047 0)"/>
       <use xlink:href="#DejaVuSans-38" transform="translate(95.410156 0)"/>
      </g>
     </g>
    </g>
    <g id="ytick_6">
     <g id="line2d_14">
      <g>
       <use xlink:href="#m7d2a2f991f" x="47.81" y="32.451538" style="stroke: #000000; stroke-width: 0.8"/>
      </g>
     </g>
     <g id="text_15">
      <!-- 1.0 -->
      <g transform="translate(24.906875 36.250757) scale(0.1 -0.1)">
       <use xlink:href="#DejaVuSans-31"/>
       <use xlink:href="#DejaVuSans-2e" transform="translate(63.623047 0)"/>
       <use xlink:href="#DejaVuSans-30" transform="translate(95.410156 0)"/>
      </g>
     </g>
    </g>
    <g id="text_16">
     <!-- Conservation score -->
     <g transform="translate(18.827187 255.818906) rotate(-90) scale(0.1 -0.1)">
      <defs>
       <path id="DejaVuSans-43" d="M 4122 4306 
L 4122 3641 
Q 3803 3938 3442 4084 
Q 3081 4231 2675 4231 
Q 1875 4231 1450 3742 
Q 1025 3253 1025 2328 
Q 1025 1406 1450 917 
Q 1875 428 2675 428 
Q 3081 428 3442 575 
Q 3803 722 4122 1019 
L 4122 359 
Q 3791 134 3420 21 
Q 3050 -91 2638 -91 
Q 1578 -91 968 557 
Q 359 1206 359 2328 
Q 359 3453 968 4101 
Q 1578 4750 2638 4750 
Q 3056 4750 3426 4639 
Q 3797 4528 4122 4306 
z
" transform="scale(0.015625)"/>
       <path id="DejaVuSans-72" d="M 2631 2963 
Q 2534 3019 2420 3045 
Q 2306 3072 2169 3072 
Q 1681 3072 1420 2755 
Q 1159 2438 1159 1844 
L 1159 0 
L 581 0 
L 581 3500 
L 1159 3500 
L 1159 2956 
Q 1341 3275 1631 3429 
Q 1922 3584 2338 3584 
Q 2397 3584 2469 3576 
Q 2541 3569 2628 3553 
L 2631 2963 
z
" transform="scale(0.015625)"/>
       <path id="DejaVuSans-76" d="M 191 3500 
L 800 3500 
L 1894 563 
L 2988 3500 
L 3597 3500 
L 2284 0 
L 1503 0 
L 191 3500 
z
" transform="scale(0.015625)"/>
       <path id="DejaVuSans-61" d="M 2194 1759 
Q 1497 1759 1228 1600 
Q 959 1441 959 1056 
Q 959 750 1161 570 
Q 1363 391 1709 391 
Q 2188 391 2477 730 
Q 2766 1069 2766 1631 
L 2766 1759 
L 2194 1759 
z
M 3341 1997 
L 3341 0 
L 2766 0 
L 2766 531 
Q 2569 213 2275 61 
Q 1981 -91 1556 -91 
Q 1019 -91 701 211 
Q 384 513 384 1019 
Q 384 1609 779 1909 
Q 1175 2209 1959 2209 
L 2766 2209 
L 2766 2266 
Q 2766 2663 2505 2880 
Q 2244 3097 1772 3097 
Q 1472 3097 1187 3025 
Q 903 2953 641 2809 
L 641 3341 
Q 956 3463 1253 3523 
Q 1550 3584 1831 3584 
Q 2591 3584 2966 3190 
Q 3341 2797 3341 1997 
z
" transform="scale(0.015625)"/>
       <path id="DejaVuSans-63" d="M 3122 3366 
L 3122 2828 
Q 2878 2963 2633 3030 
Q 2388 3097 2138 3097 
Q 1578 3097 1268 2742 
Q 959 2388 959 1747 
Q 959 1106 1268 751 
Q 1578 397 2138 397 
Q 2388 397 2633 464 
Q 2878 531 3122 666 
L 3122 134 
Q 2881 22 2623 -34 
Q 2366 -91 2075 -91 
Q 1284 -91 818 406 
Q 353 903 353 1747 
Q 353 2603 823 3093 
Q 1294 3584 2113 3584 
Q 2378 3584 2631 3529 
Q 2884 3475 3122 3366 
z
" transform="scale(0.015625)"/>
      </defs>
      <use xlink:href="#DejaVuSans-43"/>
      <use xlink:href="#DejaVuSans-6f" transform="translate(69.824219 0)"/>
      <use xlink:href="#DejaVuSans-6e" transform="translate(131.005859 0)"/>
      <use xlink:href="#DejaVuSans-73" transform="translate(194.384766 0)"/>
      <use xlink:href="#DejaVuSans-65" transform="translate(246.484375 0)"/>
      <use xlink:href="#DejaVuSans-72" transform="translate(308.007812 0)"/>
      <use xlink:href="#DejaVuSans-76" transform="translate(349.121094 0)"/>
      <use xlink:href="#DejaVuSans-61" transform="translate(408.300781 0)"/>
      <use xlink:href="#DejaVuSans-74" transform="translate(469.580078 0)"/>
      <use xlink:href="#DejaVuSans-69" transform="translate(508.789062 0)"/>
      <use xlink:href="#DejaVuSans-6f" transform="translate(536.572266 0)"/>
      <use xlink:href="#DejaVuSans-6e" transform="translate(597.753906 0)"/>
      <use xlink:href="#DejaVuSans-20" transform="translate(661.132812 0)"/>
      <use xlink:href="#DejaVuSans-73" transform="translate(692.919922 0)"/>
      <use xlink:href="#DejaVuSans-63" transform="translate(745.019531 0)"/>
      <use xlink:href="#DejaVuSans-6f" transform="translate(800 0)"/>
      <use xlink:href="#DejaVuSans-72" transform="translate(861.181641 0)"/>
      <use xlink:href="#DejaVuSans-65" transform="translate(900.044922 0)"/>
     </g>
    </g>
   </g>
   <g id="line2d_15">
    <path d="M 97.509545 42.030143 
L 100.450347 59.418994 
L 103.391148 80.344561 
L 106.33195 179.655108 
L 109.272751 65.378653 
L 112.213553 79.48015 
L 115.154354 144.197933 
L 118.095156 62.500989 
L 121.035958 42.468022 
L 123.976759 67.705084 
L 126.917561 79.720337 
L 129.858362 40.510778 
L 132.799164 103.354736 
L 135.739965 61.829493 
L 138.680767 105.32427 
L 141.621568 34.432199 
L 144.56237 42.468022 
L 147.503171 65.933604 
L 150.443973 48.032735 
L 153.384774 57.770983 
L 156.325576 65.197735 
L 159.266377 42.135984 
L 162.207179 54.238805 
L 165.14798 146.684468 
L 168.088782 42.082773 
L 171.029583 46.009762 
L 173.970385 173.844441 
L 176.911186 71.18932 
L 179.851988 32.451538 
L 182.792789 201.96126 
L 185.733591 40.072776 
L 188.674392 40.072776 
L 191.615194 47.694013 
L 194.555995 36.28298 
L 197.496797 66.934515 
L 200.437598 59.271631 
L 203.3784 42.030143 
L 206.319201 80.344561 
L 209.260003 67.315542 
L 212.200804 183.528887 
L 215.141606 42.030143 
L 218.082407 53.409941 
L 221.023209 42.030143 
L 223.96401 36.262157 
L 226.904812 38.198701 
L 229.845613 183.237312 
L 232.786415 66.378337 
L 235.727216 32.451538 
L 238.668018 41.92659 
L 241.608819 32.451538 
L 244.549621 123.412037 
L 247.490422 32.451538 
L 265.135231 32.451538 
L 268.076033 34.336361 
L 271.016834 32.451538 
L 276.898437 32.451538 
L 279.839239 34.336361 
L 282.78004 34.336361 
L 285.720842 36.221183 
L 288.661643 34.336361 
L 291.602445 51.29976 
L 297.484048 32.451538 
L 300.424849 34.336361 
L 303.365651 205.855178 
L 306.306452 45.645294 
L 309.247254 38.106005 
L 312.188055 34.336361 
L 315.128857 153.080157 
L 318.069658 88.996203 
L 321.01046 34.336361 
L 323.951261 32.451538 
L 326.892063 32.451538 
L 329.832864 36.221183 
L 332.773666 55.069404 
L 335.714467 34.336361 
L 338.655269 32.451538 
L 341.59607 191.632412 
L 344.536872 40.03158 
L 347.477673 34.346549 
L 350.418475 32.451538 
L 353.359276 36.241559 
L 356.300078 34.346549 
L 359.24088 34.346549 
L 362.181681 32.451538 
L 365.122483 45.645294 
L 368.063284 53.184582 
L 371.004086 32.451538 
L 373.944887 34.336361 
L 376.885689 34.356848 
L 379.82649 121.517027 
L 382.767292 41.92659 
L 385.708093 47.611622 
L 388.648895 34.346549 
L 394.530498 41.92659 
L 397.471299 34.346549 
L 400.412101 32.451538 
L 403.352902 32.451538 
L 406.293704 39.990827 
L 409.234505 32.451538 
L 423.938513 32.451538 
L 426.879314 207.74 
L 429.820116 32.451538 
L 432.760917 51.29976 
L 435.701719 62.608693 
L 438.64252 39.990827 
L 441.583322 34.336361 
L 444.524123 38.106005 
L 447.464925 161.312245 
L 450.405726 160.619446 
L 453.346528 68.26316 
L 456.287329 41.875649 
L 459.228131 188.891778 
L 462.168932 32.451538 
L 465.109734 32.451538 
L 468.050535 34.336361 
L 470.991337 109.729247 
L 473.932138 32.451538 
L 476.87294 32.451538 
L 479.813741 36.221183 
L 482.754543 32.451538 
L 500.399352 32.451538 
L 503.340153 53.184582 
L 506.280955 32.451538 
L 509.221756 104.074781 
L 512.162558 49.414938 
L 515.103359 32.451538 
L 518.044161 49.414938 
L 520.984962 56.954227 
L 523.925764 34.346549 
L 526.866565 36.241559 
L 529.807367 53.296653 
L 532.748168 32.451538 
L 535.68897 62.771705 
L 538.629771 34.346549 
L 541.570573 34.346549 
L 544.511374 36.241559 
L 547.452176 32.451538 
L 550.392977 34.336361 
L 553.333779 39.990827 
L 556.27458 200.200711 
L 559.215382 32.451538 
L 562.156183 32.451538 
L 565.096985 34.336361 
L 568.037786 34.336361 
L 570.978588 32.451538 
L 576.860191 32.451538 
L 579.800992 36.221183 
L 585.682595 32.451538 
L 591.564198 32.451538 
L 594.505 34.336361 
L 597.445802 45.645294 
L 600.386603 201.107464 
L 603.327405 32.451538 
L 606.268206 32.451538 
L 609.209008 34.346549 
L 612.149809 49.506632 
L 615.090611 32.451538 
L 618.031412 140.467131 
L 620.972214 36.241559 
L 623.913015 32.451538 
L 626.853817 32.451538 
L 629.794618 41.875649 
L 632.73542 32.451538 
L 635.676221 56.954227 
L 638.617023 32.451538 
L 641.557824 38.106005 
L 644.498626 70.147982 
L 647.439427 36.221183 
L 650.380229 32.451538 
L 653.32103 32.451538 
L 656.261832 36.241559 
L 659.202633 53.296653 
L 662.143435 32.451538 
L 665.084236 36.241559 
L 668.025038 49.506632 
L 670.965839 77.931788 
L 673.906641 49.506632 
L 676.847442 34.346549 
L 679.788244 32.451538 
L 682.729045 204.897484 
L 685.669847 66.561726 
L 688.610648 41.875649 
L 691.55145 32.451538 
L 694.492251 145.540868 
L 697.433053 38.106005 
L 700.373854 34.336361 
L 703.314656 32.451538 
L 706.255457 38.13657 
L 709.196259 32.451538 
L 712.13706 32.451538 
L 718.018663 36.201024 
L 720.959465 32.451538 
L 723.900266 34.326281 
L 726.841068 34.326281 
L 729.781869 99.942283 
L 732.722671 32.451538 
L 735.663472 36.201024 
L 738.604274 83.069597 
L 741.545075 32.451538 
L 744.485877 32.451538 
L 747.426678 186.180457 
L 750.36748 62.447425 
L 753.308281 56.954227 
L 756.249083 32.451538 
L 762.130686 32.451538 
L 765.071487 171.182513 
L 768.012289 32.451538 
L 770.95309 92.443311 
L 773.893892 69.946397 
L 776.834693 32.451538 
L 779.775495 34.326281 
L 782.716296 32.451538 
L 785.657098 32.451538 
L 788.597899 38.075767 
L 791.538701 32.451538 
L 794.479502 58.697939 
L 797.420304 32.451538 
L 800.361105 34.326281 
L 803.301907 32.451538 
L 806.242708 34.326281 
L 809.18351 38.075767 
L 812.124311 32.451538 
L 815.065113 96.192797 
L 818.005914 32.451538 
L 820.946716 69.946397 
L 823.887517 43.699996 
L 826.828319 34.326281 
L 829.76912 41.825253 
L 832.709922 62.608693 
L 835.650724 34.326281 
L 838.591525 96.535492 
L 841.532327 108.663913 
L 844.473128 141.054172 
L 847.41393 90.238943 
L 850.354731 173.844441 
L 853.295533 97.586049 
L 856.236334 53.640254 
L 859.177136 38.327129 
L 862.117937 68.456736 
L 865.058739 130.462291 
L 867.99954 34.336361 
L 870.940342 32.451538 
L 873.881143 166.273912 
L 876.821945 51.29976 
L 879.762746 34.336361 
L 882.703548 32.451538 
L 885.644349 32.451538 
L 888.585151 34.336361 
L 891.525952 39.990827 
L 894.466754 34.336361 
L 897.407555 79.572093 
L 900.348357 32.451538 
L 903.289158 32.451538 
L 906.22996 66.378337 
L 909.170761 43.760471 
L 912.111563 58.839049 
L 915.052364 34.336361 
L 917.993166 32.451538 
L 920.933967 43.760471 
L 923.874769 43.760471 
L 926.81557 34.336361 
L 929.756372 38.106005 
L 932.697173 32.451538 
L 935.637975 34.336361 
L 938.578776 207.74 
L 941.519578 38.106005 
L 944.460379 34.336361 
L 947.401181 32.451538 
L 950.341982 43.760471 
L 953.282784 38.106005 
L 956.223585 60.723871 
L 959.164387 64.493515 
L 962.105188 96.535492 
L 965.04599 32.451538 
L 967.986791 41.875649 
L 970.927593 43.760471 
L 973.868394 34.336361 
L 976.809196 34.346549 
L 979.749997 83.341737 
L 982.690799 36.221183 
L 985.6316 49.414938 
L 988.572402 53.184582 
L 991.513203 58.839049 
L 994.454005 49.414938 
L 997.394806 68.26316 
L 1000.335608 38.106005 
L 1003.276409 90.881026 
L 1006.217211 56.954227 
L 1009.158012 157.522225 
L 1012.098814 52.146871 
L 1015.039615 72.902722 
L 1017.980417 43.760471 
L 1020.921218 49.506632 
L 1023.86202 58.839049 
L 1029.743623 39.95051 
L 1032.684424 51.198968 
L 1035.625226 41.825253 
L 1038.566027 36.221183 
L 1041.506829 182.698791 
L 1044.44763 38.327129 
L 1047.388432 58.055471 
L 1050.329233 64.142108 
L 1053.270035 87.910035 
L 1056.210836 56.219465 
L 1059.151638 143.998741 
L 1062.092439 190.313662 
L 1065.033241 70.514176 
L 1067.974042 70.929493 
L 1070.914844 57.344574 
L 1073.855646 186.075134 
L 1076.796447 95.476603 
L 1079.737249 60.584255 
L 1082.67805 90.168471 
L 1085.618852 81.142778 
L 1088.559653 93.091871 
L 1091.500455 94.318054 
L 1091.500455 94.318054 
" clip-path="url(#p6149204a4b)" style="fill: none; stroke: #1f77b4; stroke-width: 1.5; stroke-linecap: square"/>
   </g>
   <g id="line2d_16">
    <path d="M 97.509545 34.367259 
L 100.450347 188.477532 
L 103.391148 40.114422 
L 106.33195 181.591997 
L 109.272751 36.325317 
L 112.213553 41.002195 
L 115.154354 39.024856 
L 118.095156 34.454835 
L 121.035958 32.451538 
L 123.976759 32.451538 
L 126.917561 36.390605 
L 129.858362 32.451538 
L 132.799164 34.421072 
L 135.739965 38.327129 
L 138.680767 32.451538 
L 144.56237 32.451538 
L 147.503171 34.421072 
L 153.384774 34.399188 
L 156.325576 121.058893 
L 159.266377 38.262206 
L 162.207179 38.39352 
L 165.14798 182.136067 
L 168.088782 32.451538 
L 171.029583 36.325317 
L 173.970385 189.339554 
L 176.911186 36.325317 
L 179.851988 42.082773 
L 182.792789 42.082773 
L 185.733591 49.599323 
L 188.674392 38.167467 
L 191.615194 40.072776 
L 194.555995 34.367259 
L 197.496797 40.114422 
L 200.437598 55.440189 
L 203.3784 34.367259 
L 206.319201 187.624931 
L 209.260003 59.567986 
L 212.200804 71.18932 
L 215.141606 38.198701 
L 218.082407 106.758604 
L 221.023209 74.597398 
L 223.96401 40.072776 
L 226.904812 55.440189 
L 229.845613 96.535492 
L 232.786415 188.891778 
L 235.727216 32.451538 
L 238.668018 184.05237 
L 241.608819 187.842391 
L 244.549621 112.041975 
L 247.490422 32.451538 
L 256.312827 32.451538 
L 259.253628 34.336361 
L 262.19443 32.451538 
L 279.839239 32.451538 
L 282.78004 38.106005 
L 285.720842 39.990827 
L 288.661643 32.451538 
L 291.602445 32.451538 
L 294.543246 41.875649 
L 297.484048 34.336361 
L 303.365651 34.336361 
L 306.306452 81.456915 
L 309.247254 34.336361 
L 312.188055 41.875649 
L 315.128857 32.451538 
L 318.069658 160.619446 
L 321.01046 32.451538 
L 329.832864 32.451538 
L 332.773666 34.336361 
L 338.655269 34.346549 
L 341.59607 201.107464 
L 344.536872 240.902682 
L 347.477673 60.876694 
L 350.418475 32.451538 
L 353.359276 144.257152 
L 356.300078 38.13657 
L 359.24088 34.346549 
L 362.181681 36.241559 
L 365.122483 104.074781 
L 368.063284 92.765848 
L 371.004086 32.451538 
L 373.944887 32.451538 
L 376.885689 57.22056 
L 379.82649 85.51183 
L 382.767292 34.346549 
L 385.708093 87.40684 
L 388.648895 32.451538 
L 391.589696 129.097069 
L 394.530498 108.251954 
L 397.471299 153.732204 
L 400.412101 38.106005 
L 403.352902 32.451538 
L 406.293704 39.990827 
L 409.234505 32.451538 
L 412.175307 32.451538 
L 415.116108 55.069404 
L 418.05691 32.451538 
L 423.938513 32.451538 
L 426.879314 36.221183 
L 429.820116 81.456915 
L 432.760917 113.498892 
L 435.701719 72.032804 
L 438.64252 34.336361 
L 441.583322 34.336361 
L 444.524123 72.032804 
L 447.464925 130.992079 
L 450.405726 160.619446 
L 453.346528 32.451538 
L 456.287329 107.844425 
L 459.228131 39.990827 
L 462.168932 32.451538 
L 465.109734 32.451538 
L 470.991337 226.588222 
L 473.932138 32.451538 
L 476.87294 38.106005 
L 479.813741 90.881026 
L 482.754543 32.451538 
L 485.695344 36.221183 
L 488.636146 32.451538 
L 506.280955 32.451538 
L 509.221756 115.383714 
L 512.162558 32.451538 
L 515.103359 45.645294 
L 518.044161 53.184582 
L 520.984962 32.451538 
L 526.866565 32.451538 
L 529.807367 41.92659 
L 532.748168 38.13657 
L 535.68897 32.451538 
L 538.629771 77.931788 
L 541.570573 34.346549 
L 544.511374 41.92659 
L 547.452176 32.451538 
L 550.392977 34.336361 
L 553.333779 200.200711 
L 556.27458 183.237312 
L 559.215382 32.451538 
L 562.156183 32.451538 
L 565.096985 47.530116 
L 568.037786 34.336361 
L 570.978588 34.336361 
L 573.919389 32.451538 
L 585.682595 32.451538 
L 588.623397 34.336361 
L 591.564198 32.451538 
L 594.505 32.451538 
L 597.445802 49.414938 
L 600.386603 79.826798 
L 603.327405 32.451538 
L 606.268206 32.451538 
L 609.209008 55.191663 
L 612.149809 53.296653 
L 615.090611 32.451538 
L 618.031412 32.451538 
L 620.972214 210.582516 
L 623.913015 47.611622 
L 626.853817 178.367339 
L 629.794618 130.462291 
L 632.73542 32.451538 
L 635.676221 170.043557 
L 638.617023 32.451538 
L 647.439427 32.451538 
L 650.380229 34.336361 
L 653.32103 32.451538 
L 662.143435 32.451538 
L 665.084236 34.346549 
L 668.025038 32.451538 
L 670.965839 32.451538 
L 673.906641 34.346549 
L 676.847442 32.451538 
L 679.788244 32.451538 
L 682.729045 34.346549 
L 685.669847 32.451538 
L 688.610648 34.336361 
L 691.55145 32.451538 
L 703.314656 32.451538 
L 706.255457 38.13657 
L 709.196259 32.451538 
L 712.13706 32.451538 
L 715.077862 174.577318 
L 718.018663 32.451538 
L 723.900266 32.451538 
L 726.841068 45.574739 
L 729.781869 32.451538 
L 732.722671 32.451538 
L 735.663472 58.697939 
L 738.604274 32.451538 
L 744.485877 32.451538 
L 747.426678 43.699996 
L 750.36748 180.556228 
L 753.308281 41.875649 
L 756.249083 32.451538 
L 759.189884 154.964979 
L 762.130686 32.451538 
L 765.071487 41.825253 
L 768.012289 32.451538 
L 776.834693 32.451538 
L 779.775495 34.326281 
L 782.716296 32.451538 
L 785.657098 32.451538 
L 788.597899 34.326281 
L 791.538701 32.451538 
L 794.479502 58.697939 
L 797.420304 32.451538 
L 800.361105 101.817026 
L 803.301907 32.451538 
L 806.242708 34.326281 
L 809.18351 225.550058 
L 812.124311 34.326281 
L 815.065113 32.451538 
L 818.005914 32.451538 
L 820.946716 34.326281 
L 823.887517 105.566512 
L 826.828319 71.821139 
L 829.76912 32.451538 
L 832.709922 56.954227 
L 835.650724 53.07371 
L 838.591525 51.29976 
L 841.532327 47.694013 
L 844.473128 97.232057 
L 847.41393 53.640254 
L 850.354731 82.810654 
L 853.295533 45.861585 
L 856.236334 155.731336 
L 859.177136 48.119781 
L 862.117937 112.041975 
L 865.058739 147.425691 
L 867.99954 41.875649 
L 870.940342 32.451538 
L 873.881143 43.760471 
L 876.821945 32.451538 
L 879.762746 109.729247 
L 882.703548 34.336361 
L 885.644349 32.451538 
L 888.585151 32.451538 
L 891.525952 85.226559 
L 894.466754 32.451538 
L 903.289158 32.451538 
L 906.22996 34.336361 
L 909.170761 32.451538 
L 915.052364 32.451538 
L 917.993166 177.582845 
L 920.933967 32.451538 
L 923.874769 72.032804 
L 926.81557 36.221183 
L 929.756372 32.451538 
L 932.697173 32.451538 
L 935.637975 34.336361 
L 938.578776 32.451538 
L 941.519578 188.891778 
L 944.460379 107.844425 
L 947.401181 32.451538 
L 950.341982 36.221183 
L 956.223585 32.451538 
L 959.164387 47.530116 
L 962.105188 36.221183 
L 965.04599 32.451538 
L 967.986791 32.451538 
L 970.927593 34.336361 
L 973.868394 34.336361 
L 976.809196 32.451538 
L 979.749997 34.336361 
L 982.690799 34.336361 
L 985.6316 32.451538 
L 988.572402 51.29976 
L 991.513203 47.530116 
L 994.454005 39.990827 
L 997.394806 38.106005 
L 1000.335608 34.336361 
L 1003.276409 32.451538 
L 1006.217211 100.305136 
L 1009.158012 187.842391 
L 1012.098814 36.390605 
L 1015.039615 38.230279 
L 1017.980417 68.26316 
L 1020.921218 74.141767 
L 1023.86202 83.341737 
L 1026.802821 41.875649 
L 1029.743623 210.552114 
L 1032.684424 41.825253 
L 1035.625226 32.451538 
L 1038.566027 58.839049 
L 1041.506829 55.5665 
L 1044.44763 36.368599 
L 1047.388432 56.085938 
L 1050.329233 85.929374 
L 1053.270035 58.200126 
L 1056.210836 91.871356 
L 1059.151638 46.394939 
L 1062.092439 42.702326 
L 1065.033241 52.484505 
L 1067.974042 43.139859 
L 1070.914844 188.033013 
L 1073.855646 67.903137 
L 1076.796447 40.329672 
L 1079.737249 84.38886 
L 1082.67805 126.508762 
L 1085.618852 94.776325 
L 1088.559653 159.417235 
L 1091.500455 171.182513 
L 1091.500455 171.182513 
" clip-path="url(#p6149204a4b)" style="fill: none; stroke: #ff7f0e; stroke-width: 1.5; stroke-linecap: square"/>
   </g>
   <g id="line2d_17">
    <path d="M 97.509545 36.28298 
L 100.450347 67.123981 
L 103.391148 122.49042 
L 106.33195 115.737769 
L 109.272751 76.999987 
L 112.213553 79.48015 
L 115.154354 190.211154 
L 118.095156 60.497692 
L 121.035958 42.468022 
L 123.976759 79.456266 
L 126.917561 128.958669 
L 129.858362 36.481158 
L 132.799164 193.953267 
L 135.739965 73.580675 
L 138.680767 36.390605 
L 141.621568 36.41286 
L 144.56237 192.715275 
L 147.503171 40.329672 
L 153.384774 48.032735 
L 156.325576 65.197735 
L 159.266377 46.009762 
L 162.207179 38.39352 
L 165.14798 69.872671 
L 168.088782 38.230279 
L 171.029583 40.199095 
L 173.970385 173.844441 
L 176.911186 47.946651 
L 179.851988 38.230279 
L 182.792789 80.607709 
L 185.733591 36.262157 
L 188.674392 40.072776 
L 191.615194 47.694013 
L 194.555995 36.28298 
L 197.496797 68.850235 
L 200.437598 61.187352 
L 203.3784 42.030143 
L 206.319201 76.513119 
L 209.260003 69.252431 
L 212.200804 181.591997 
L 215.141606 42.030143 
L 218.082407 49.599323 
L 221.023209 40.114422 
L 223.96401 45.788704 
L 226.904812 43.945864 
L 229.845613 185.122134 
L 232.786415 66.378337 
L 235.727216 32.451538 
L 238.668018 76.036778 
L 241.608819 193.527422 
L 244.549621 123.412037 
L 247.490422 32.451538 
L 259.253628 32.451538 
L 262.19443 34.336361 
L 265.135231 32.451538 
L 268.076033 34.336361 
L 271.016834 43.760471 
L 273.957636 34.336361 
L 276.898437 32.451538 
L 279.839239 32.451538 
L 285.720842 36.221183 
L 288.661643 34.336361 
L 291.602445 53.184582 
L 294.543246 79.572093 
L 297.484048 32.451538 
L 300.424849 34.336361 
L 303.365651 207.74 
L 306.306452 60.723871 
L 309.247254 145.540868 
L 312.188055 41.875649 
L 315.128857 164.38909 
L 318.069658 83.341737 
L 321.01046 34.336361 
L 323.951261 32.451538 
L 326.892063 32.451538 
L 329.832864 36.221183 
L 332.773666 55.069404 
L 335.714467 34.336361 
L 338.655269 32.451538 
L 341.59607 201.107464 
L 344.536872 55.191663 
L 347.477673 34.346549 
L 350.418475 32.451538 
L 353.359276 34.346549 
L 359.24088 34.346549 
L 362.181681 32.451538 
L 365.122483 43.760471 
L 368.063284 45.645294 
L 371.004086 32.451538 
L 373.944887 32.451538 
L 376.885689 40.072776 
L 379.82649 100.671913 
L 382.767292 185.94738 
L 385.708093 51.401642 
L 388.648895 34.346549 
L 391.589696 40.03158 
L 394.530498 91.196861 
L 397.471299 41.92659 
L 400.412101 32.451538 
L 403.352902 32.451538 
L 406.293704 39.990827 
L 409.234505 32.451538 
L 412.175307 32.451538 
L 415.116108 66.378337 
L 418.05691 32.451538 
L 423.938513 32.451538 
L 426.879314 205.855178 
L 429.820116 32.451538 
L 432.760917 51.29976 
L 435.701719 109.729247 
L 438.64252 39.990827 
L 441.583322 34.336361 
L 444.524123 47.530116 
L 447.464925 157.522225 
L 450.405726 164.38909 
L 453.346528 68.26316 
L 456.287329 41.875649 
L 459.228131 190.7766 
L 462.168932 32.451538 
L 465.109734 32.451538 
L 468.050535 41.875649 
L 470.991337 32.451538 
L 473.932138 32.451538 
L 476.87294 41.875649 
L 479.813741 32.451538 
L 500.399352 32.451538 
L 503.340153 43.760471 
L 506.280955 32.451538 
L 509.221756 104.074781 
L 512.162558 51.29976 
L 515.103359 32.451538 
L 518.044161 38.106005 
L 520.984962 53.184582 
L 523.925764 34.346549 
L 526.866565 199.212453 
L 529.807367 53.296653 
L 532.748168 32.451538 
L 535.68897 62.771705 
L 538.629771 36.241559 
L 541.570573 34.346549 
L 544.511374 34.346549 
L 547.452176 32.451538 
L 550.392977 113.498892 
L 553.333779 41.875649 
L 556.27458 190.7766 
L 559.215382 32.451538 
L 562.156183 32.451538 
L 565.096985 34.336361 
L 568.037786 34.336361 
L 570.978588 32.451538 
L 573.919389 158.734624 
L 576.860191 32.451538 
L 579.800992 32.451538 
L 582.741794 36.221183 
L 585.682595 32.451538 
L 591.564198 32.451538 
L 594.505 34.336361 
L 597.445802 45.645294 
L 600.386603 43.821601 
L 603.327405 32.451538 
L 606.268206 32.451538 
L 609.209008 85.51183 
L 612.149809 34.346549 
L 615.090611 32.451538 
L 618.031412 140.467131 
L 620.972214 36.241559 
L 623.913015 34.346549 
L 626.853817 163.207256 
L 629.794618 43.760471 
L 632.73542 32.451538 
L 635.676221 56.954227 
L 638.617023 32.451538 
L 641.557824 38.106005 
L 644.498626 70.147982 
L 647.439427 36.221183 
L 650.380229 32.451538 
L 653.32103 32.451538 
L 656.261832 34.346549 
L 659.202633 47.611622 
L 662.143435 34.346549 
L 665.084236 36.241559 
L 668.025038 47.611622 
L 670.965839 138.572121 
L 673.906641 47.611622 
L 676.847442 47.611622 
L 679.788244 32.451538 
L 682.729045 195.422432 
L 685.669847 74.141767 
L 688.610648 36.221183 
L 691.55145 41.875649 
L 694.492251 75.802448 
L 697.433053 32.451538 
L 700.373854 34.336361 
L 703.314656 32.451538 
L 706.255457 36.241559 
L 709.196259 32.451538 
L 712.13706 32.451538 
L 715.077862 34.346549 
L 718.018663 32.451538 
L 723.900266 36.201024 
L 726.841068 36.201024 
L 729.781869 120.564455 
L 732.722671 32.451538 
L 735.663472 34.326281 
L 738.604274 126.188684 
L 741.545075 32.451538 
L 744.485877 32.451538 
L 747.426678 203.053143 
L 750.36748 64.322168 
L 753.308281 72.032804 
L 756.249083 36.221183 
L 759.189884 202.085533 
L 762.130686 32.451538 
L 765.071487 171.182513 
L 768.012289 32.451538 
L 770.95309 75.570625 
L 773.893892 69.946397 
L 776.834693 32.451538 
L 779.775495 43.699996 
L 782.716296 32.451538 
L 785.657098 32.451538 
L 788.597899 34.326281 
L 791.538701 32.451538 
L 794.479502 56.823196 
L 797.420304 32.451538 
L 800.361105 34.326281 
L 803.301907 32.451538 
L 806.242708 41.825253 
L 809.18351 45.574739 
L 812.124311 32.451538 
L 815.065113 103.691769 
L 818.005914 32.451538 
L 820.946716 71.821139 
L 823.887517 88.693826 
L 826.828319 34.326281 
L 829.76912 39.95051 
L 832.709922 90.881026 
L 835.650724 36.201024 
L 838.591525 207.74 
L 841.532327 99.137366 
L 844.473128 141.054172 
L 847.41393 99.870178 
L 850.354731 206.771555 
L 853.295533 66.934515 
L 856.236334 49.78776 
L 859.177136 40.28566 
L 862.117937 81.721809 
L 865.058739 45.645294 
L 867.99954 36.221183 
L 870.940342 32.451538 
L 873.881143 130.462291 
L 876.821945 53.184582 
L 879.762746 41.875649 
L 882.703548 32.451538 
L 885.644349 32.451538 
L 888.585151 34.336361 
L 891.525952 39.990827 
L 894.466754 34.336361 
L 897.407555 77.68727 
L 900.348357 32.451538 
L 903.289158 34.336361 
L 906.22996 192.661423 
L 909.170761 43.760471 
L 912.111563 56.954227 
L 915.052364 36.221183 
L 917.993166 121.03818 
L 920.933967 43.760471 
L 923.874769 45.645294 
L 926.81557 34.336361 
L 929.756372 39.990827 
L 932.697173 32.451538 
L 935.637975 36.221183 
L 938.578776 190.7766 
L 941.519578 38.106005 
L 944.460379 34.336361 
L 947.401181 34.346549 
L 950.341982 92.765848 
L 953.282784 36.221183 
L 956.223585 56.954227 
L 959.164387 53.184582 
L 962.105188 166.273912 
L 965.04599 34.336361 
L 967.986791 43.760471 
L 970.927593 36.221183 
L 976.809196 32.451538 
L 979.749997 85.226559 
L 982.690799 34.336361 
L 985.6316 53.184582 
L 988.572402 56.954227 
L 991.513203 58.839049 
L 994.454005 49.414938 
L 997.394806 81.456915 
L 1000.335608 38.106005 
L 1003.276409 92.765848 
L 1006.217211 58.839049 
L 1009.158012 159.417235 
L 1012.098814 56.085938 
L 1015.039615 49.78776 
L 1017.980417 41.875649 
L 1020.921218 49.506632 
L 1023.86202 70.147982 
L 1026.802821 49.414938 
L 1029.743623 38.075767 
L 1032.684424 54.948453 
L 1035.625226 43.699996 
L 1038.566027 39.990827 
L 1041.506829 182.698791 
L 1044.44763 61.829493 
L 1047.388432 58.055471 
L 1050.329233 62.161447 
L 1053.270035 74.045411 
L 1056.210836 66.122768 
L 1059.151638 140.014913 
L 1062.092439 196.464134 
L 1065.033241 68.510879 
L 1067.974042 85.893143 
L 1070.914844 63.567833 
L 1073.855646 166.379801 
L 1076.796447 83.659404 
L 1079.737249 51.928034 
L 1082.67805 190.638687 
L 1085.618852 83.090427 
L 1088.559653 83.616819 
L 1091.500455 86.819083 
L 1091.500455 86.819083 
" clip-path="url(#p6149204a4b)" style="fill: none; stroke: #2ca02c; stroke-width: 1.5; stroke-linecap: square"/>
   </g>
   <g id="line2d_18">
    <path d="M 97.509545 45.861585 
L 100.450347 96.017684 
L 103.391148 191.456372 
L 106.33195 199.023999 
L 109.272751 119.611547 
L 112.213553 120.095769 
L 115.154354 205.548894 
L 118.095156 228.774615 
L 121.035958 54.487802 
L 123.976759 173.46572 
L 126.917561 138.806335 
L 129.858362 60.658877 
L 132.799164 154.562602 
L 135.739965 169.548659 
L 138.680767 172.288401 
L 141.621568 72.06475 
L 144.56237 254.817473 
L 147.503171 91.537537 
L 150.443973 79.195128 
L 153.384774 73.352179 
L 156.325576 94.091437 
L 159.266377 104.116434 
L 162.207179 68.103429 
L 165.14798 170.318868 
L 168.088782 65.197735 
L 171.029583 59.567986 
L 173.970385 73.126209 
L 176.911186 65.378653 
L 179.851988 38.230279 
L 182.792789 44.009019 
L 185.733591 36.262157 
L 188.674392 129.622316 
L 191.615194 43.883395 
L 194.555995 36.28298 
L 197.496797 65.018794 
L 200.437598 51.608747 
L 203.3784 40.114422 
L 206.319201 187.624931 
L 209.260003 158.349329 
L 212.200804 189.339554 
L 215.141606 42.030143 
L 218.082407 167.728503 
L 221.023209 76.513119 
L 223.96401 41.978085 
L 226.904812 55.440189 
L 229.845613 196.431067 
L 232.786415 168.158734 
L 235.727216 38.13657 
L 238.668018 189.737401 
L 241.608819 40.03158 
L 244.549621 151.837193 
L 247.490422 32.451538 
L 250.431224 36.241559 
L 253.372025 32.451538 
L 256.312827 32.451538 
L 259.253628 34.336361 
L 262.19443 32.451538 
L 265.135231 34.336361 
L 268.076033 34.336361 
L 271.016834 32.451538 
L 279.839239 32.451538 
L 282.78004 38.106005 
L 285.720842 38.106005 
L 288.661643 36.221183 
L 291.602445 49.414938 
L 294.543246 64.493515 
L 297.484048 36.221183 
L 300.424849 34.336361 
L 303.365651 36.221183 
L 306.306452 81.456915 
L 309.247254 149.310513 
L 312.188055 41.875649 
L 315.128857 190.7766 
L 318.069658 211.509644 
L 321.01046 34.336361 
L 323.951261 60.723871 
L 326.892063 32.451538 
L 329.832864 34.336361 
L 332.773666 32.451538 
L 335.714467 34.336361 
L 338.655269 34.346549 
L 341.59607 79.826798 
L 344.536872 168.892287 
L 347.477673 38.13657 
L 350.418475 32.451538 
L 353.359276 119.622017 
L 356.300078 36.241559 
L 359.24088 32.451538 
L 362.181681 36.241559 
L 365.122483 109.729247 
L 368.063284 151.195335 
L 371.004086 32.451538 
L 373.944887 36.221183 
L 376.885689 51.504632 
L 379.82649 157.522225 
L 382.767292 41.92659 
L 385.708093 74.141767 
L 388.648895 40.03158 
L 391.589696 132.887089 
L 394.530498 180.262349 
L 397.471299 153.732204 
L 400.412101 39.990827 
L 403.352902 32.451538 
L 406.293704 47.530116 
L 409.234505 32.451538 
L 412.175307 32.451538 
L 415.116108 58.839049 
L 418.05691 41.875649 
L 420.997711 32.451538 
L 423.938513 36.221183 
L 426.879314 187.006956 
L 429.820116 134.231935 
L 432.760917 109.729247 
L 435.701719 72.032804 
L 438.64252 38.106005 
L 441.583322 34.336361 
L 444.524123 75.802448 
L 447.464925 210.582516 
L 450.405726 166.273912 
L 453.346528 49.414938 
L 456.287329 107.844425 
L 459.228131 55.069404 
L 462.168932 105.959603 
L 465.109734 32.451538 
L 468.050535 117.268536 
L 470.991337 117.268536 
L 473.932138 32.451538 
L 476.87294 36.221183 
L 479.813741 158.734624 
L 482.754543 32.451538 
L 488.636146 36.221183 
L 491.576947 32.451538 
L 506.280955 32.451538 
L 509.221756 104.074781 
L 512.162558 34.336361 
L 515.103359 38.106005 
L 518.044161 47.530116 
L 520.984962 32.451538 
L 523.925764 49.506632 
L 526.866565 199.212453 
L 529.807367 91.196861 
L 532.748168 182.15736 
L 535.68897 34.346549 
L 538.629771 57.086674 
L 541.570573 68.456736 
L 544.511374 77.931788 
L 547.452176 34.336361 
L 550.392977 60.723871 
L 553.333779 200.200711 
L 556.27458 196.431067 
L 559.215382 32.451538 
L 562.156183 173.813201 
L 565.096985 62.608693 
L 568.037786 34.336361 
L 570.978588 32.451538 
L 576.860191 43.760471 
L 579.800992 32.451538 
L 585.682595 36.221183 
L 588.623397 34.336361 
L 591.564198 34.336361 
L 594.505 32.451538 
L 597.445802 39.990827 
L 600.386603 218.162557 
L 603.327405 34.346549 
L 606.268206 32.451538 
L 609.209008 45.716611 
L 612.149809 55.191663 
L 615.090611 36.241559 
L 618.031412 168.892287 
L 620.972214 64.666715 
L 623.913015 51.401642 
L 626.853817 178.367339 
L 629.794618 205.855178 
L 632.73542 32.451538 
L 635.676221 168.158734 
L 638.617023 32.451538 
L 641.557824 56.954227 
L 644.498626 60.723871 
L 647.439427 70.147982 
L 650.380229 34.336361 
L 653.32103 32.451538 
L 656.261832 64.666715 
L 659.202633 191.632412 
L 662.143435 32.451538 
L 665.084236 57.086674 
L 668.025038 231.42763 
L 670.965839 32.451538 
L 673.906641 121.517027 
L 676.847442 32.451538 
L 679.788244 36.241559 
L 682.729045 38.13657 
L 685.669847 45.716611 
L 688.610648 34.336361 
L 691.55145 41.875649 
L 694.492251 41.875649 
L 697.433053 32.451538 
L 703.314656 32.451538 
L 706.255457 36.241559 
L 709.196259 32.451538 
L 712.13706 32.451538 
L 715.077862 172.682308 
L 718.018663 34.326281 
L 720.959465 38.075767 
L 723.900266 56.823196 
L 726.841068 41.825253 
L 729.781869 34.326281 
L 732.722671 32.451538 
L 735.663472 66.196911 
L 738.604274 68.071654 
L 741.545075 32.451538 
L 744.485877 38.075767 
L 747.426678 69.946397 
L 750.36748 111.19074 
L 753.308281 68.26316 
L 756.249083 32.451538 
L 759.189884 141.771224 
L 762.130686 32.451538 
L 765.071487 174.931999 
L 768.012289 47.449482 
L 770.95309 75.570625 
L 773.893892 77.445368 
L 776.834693 38.075767 
L 779.775495 68.071654 
L 782.716296 32.451538 
L 785.657098 32.451538 
L 788.597899 39.95051 
L 791.538701 32.451538 
L 794.479502 45.574739 
L 797.420304 32.451538 
L 800.361105 195.554171 
L 803.301907 34.326281 
L 806.242708 66.196911 
L 809.18351 214.3016 
L 812.124311 34.326281 
L 815.065113 99.942283 
L 818.005914 174.931999 
L 820.946716 39.95051 
L 823.887517 105.566512 
L 826.828319 99.942283 
L 829.76912 54.948453 
L 832.709922 55.069404 
L 835.650724 51.198968 
L 838.591525 77.68727 
L 841.532327 127.717007 
L 844.473128 114.379841 
L 847.41393 99.870178 
L 850.354731 133.169771 
L 853.295533 70.765956 
L 856.236334 69.050228 
L 859.177136 48.119781 
L 862.117937 165.102266 
L 865.058739 162.504268 
L 867.99954 39.990827 
L 870.940342 38.106005 
L 873.881143 62.608693 
L 876.821945 34.336361 
L 879.762746 70.147982 
L 882.703548 34.336361 
L 885.644349 32.451538 
L 888.585151 79.572093 
L 891.525952 128.577469 
L 894.466754 36.221183 
L 897.407555 147.425691 
L 900.348357 38.106005 
L 903.289158 43.760471 
L 906.22996 34.336361 
L 909.170761 200.200711 
L 912.111563 49.414938 
L 915.052364 32.451538 
L 917.993166 60.723871 
L 920.933967 47.530116 
L 923.874769 66.378337 
L 926.81557 39.990827 
L 929.756372 220.933755 
L 932.697173 32.451538 
L 935.637975 34.336361 
L 938.578776 32.451538 
L 941.519578 190.7766 
L 944.460379 38.106005 
L 947.401181 32.451538 
L 950.341982 77.68727 
L 953.282784 38.106005 
L 956.223585 147.425691 
L 959.164387 190.7766 
L 962.105188 181.35249 
L 965.04599 34.336361 
L 967.986791 113.498892 
L 970.927593 45.645294 
L 973.868394 36.221183 
L 976.809196 34.346549 
L 979.749997 194.546245 
L 982.690799 38.106005 
L 985.6316 49.414938 
L 988.572402 115.383714 
L 991.513203 38.106005 
L 994.454005 64.493515 
L 997.394806 105.959603 
L 1000.335608 62.608693 
L 1003.276409 87.111381 
L 1006.217211 60.723871 
L 1009.158012 148.047173 
L 1012.098814 156.532135 
L 1015.039615 59.418994 
L 1017.980417 64.493515 
L 1020.921218 70.351746 
L 1023.86202 73.917626 
L 1026.802821 49.414938 
L 1029.743623 101.817026 
L 1032.684424 56.823196 
L 1035.625226 69.946397 
L 1038.566027 58.839049 
L 1041.506829 80.607709 
L 1044.44763 38.327129 
L 1047.388432 81.68987 
L 1050.329233 79.987392 
L 1053.270035 74.045411 
L 1056.210836 58.200126 
L 1059.151638 124.079598 
L 1062.092439 75.504845 
L 1065.033241 86.540549 
L 1067.974042 113.682777 
L 1070.914844 210.851629 
L 1073.855646 217.587666 
L 1076.796447 205.770467 
L 1079.737249 80.06075 
L 1082.67805 130.78409 
L 1085.618852 65.561581 
L 1088.559653 199.212453 
L 1091.500455 137.437141 
L 1091.500455 137.437141 
" clip-path="url(#p6149204a4b)" style="fill: none; stroke: #d62728; stroke-width: 1.5; stroke-linecap: square"/>
   </g>
   <g id="line2d_19">
    <path d="M 97.509545 32.451538 
L 100.450347 32.451538 
L 103.391148 195.287814 
L 106.33195 49.88354 
L 109.272751 63.441764 
L 112.213553 41.002195 
L 115.154354 60.935913 
L 118.095156 184.702088 
L 121.035958 34.454835 
L 123.976759 104.917159 
L 126.917561 91.537537 
L 129.858362 32.451538 
L 132.799164 95.476603 
L 135.739965 34.410069 
L 138.680767 32.451538 
L 141.621568 58.200126 
L 144.56237 150.646044 
L 147.503171 52.146871 
L 150.443973 40.242137 
L 153.384774 42.189786 
L 156.325576 115.280152 
L 159.266377 88.621322 
L 162.207179 44.335502 
L 165.14798 44.268738 
L 168.088782 65.197735 
L 171.029583 40.199095 
L 173.970385 150.601772 
L 176.911186 34.388428 
L 185.733591 34.356848 
L 188.674392 125.811697 
L 191.615194 32.451538 
L 194.555995 32.451538 
L 197.496797 34.367259 
L 200.437598 72.681677 
L 203.3784 36.28298 
L 206.319201 34.367259 
L 209.260003 187.402665 
L 212.200804 92.4951 
L 215.141606 32.451538 
L 218.082407 106.758604 
L 221.023209 34.367259 
L 223.96401 34.356848 
L 226.904812 32.451538 
L 229.845613 175.698023 
L 232.786415 32.451538 
L 235.727216 36.241559 
L 238.668018 32.451538 
L 241.608819 32.451538 
L 244.549621 34.346549 
L 247.490422 32.451538 
L 265.135231 32.451538 
L 268.076033 34.336361 
L 271.016834 32.451538 
L 282.78004 32.451538 
L 285.720842 34.336361 
L 288.661643 32.451538 
L 291.602445 32.451538 
L 294.543246 58.839049 
L 297.484048 32.451538 
L 306.306452 32.451538 
L 309.247254 38.106005 
L 312.188055 32.451538 
L 315.128857 34.336361 
L 318.069658 53.184582 
L 321.01046 32.451538 
L 341.59607 32.451538 
L 344.536872 110.146965 
L 347.477673 32.451538 
L 350.418475 32.451538 
L 353.359276 58.981684 
L 356.300078 34.346549 
L 359.24088 32.451538 
L 362.181681 32.451538 
L 365.122483 38.106005 
L 368.063284 90.881026 
L 371.004086 32.451538 
L 376.885689 32.451538 
L 379.82649 47.611622 
L 382.767292 41.92659 
L 385.708093 40.03158 
L 388.648895 32.451538 
L 391.589696 36.241559 
L 394.530498 32.451538 
L 403.352902 32.451538 
L 406.293704 43.760471 
L 409.234505 32.451538 
L 415.116108 32.451538 
L 418.05691 38.106005 
L 420.997711 32.451538 
L 423.938513 32.451538 
L 426.879314 34.336361 
L 429.820116 32.451538 
L 432.760917 34.336361 
L 438.64252 34.336361 
L 441.583322 32.451538 
L 444.524123 32.451538 
L 447.464925 34.346549 
L 450.405726 34.336361 
L 453.346528 32.451538 
L 465.109734 32.451538 
L 468.050535 36.221183 
L 470.991337 200.200711 
L 473.932138 32.451538 
L 476.87294 36.221183 
L 479.813741 107.844425 
L 482.754543 32.451538 
L 485.695344 34.336361 
L 488.636146 32.451538 
L 512.162558 32.451538 
L 515.103359 45.645294 
L 518.044161 38.106005 
L 520.984962 32.451538 
L 523.925764 45.716611 
L 526.866565 165.102266 
L 529.807367 32.451538 
L 535.68897 32.451538 
L 538.629771 34.346549 
L 541.570573 34.346549 
L 544.511374 32.451538 
L 547.452176 34.336361 
L 550.392977 60.723871 
L 553.333779 32.451538 
L 559.215382 32.451538 
L 562.156183 36.221183 
L 565.096985 32.451538 
L 570.978588 32.451538 
L 573.919389 38.106005 
L 576.860191 41.875649 
L 579.800992 32.451538 
L 585.682595 32.451538 
L 588.623397 34.336361 
L 591.564198 32.451538 
L 597.445802 32.451538 
L 600.386603 91.196861 
L 603.327405 32.451538 
L 609.209008 32.451538 
L 612.149809 40.03158 
L 618.031412 32.451538 
L 620.972214 32.451538 
L 623.913015 36.241559 
L 626.853817 32.451538 
L 629.794618 36.221183 
L 632.73542 32.451538 
L 635.676221 36.221183 
L 638.617023 32.451538 
L 641.557824 34.336361 
L 644.498626 32.451538 
L 653.32103 32.451538 
L 656.261832 51.401642 
L 662.143435 32.451538 
L 665.084236 55.191663 
L 668.025038 32.451538 
L 676.847442 32.451538 
L 679.788244 34.346549 
L 682.729045 32.451538 
L 688.610648 32.451538 
L 691.55145 41.875649 
L 694.492251 32.451538 
L 703.314656 32.451538 
L 706.255457 34.346549 
L 709.196259 32.451538 
L 712.13706 32.451538 
L 715.077862 38.13657 
L 718.018663 32.451538 
L 720.959465 38.075767 
L 723.900266 56.823196 
L 726.841068 36.201024 
L 729.781869 32.451538 
L 732.722671 32.451538 
L 735.663472 43.699996 
L 738.604274 34.326281 
L 741.545075 32.451538 
L 744.485877 34.326281 
L 747.426678 47.449482 
L 750.36748 38.075767 
L 753.308281 58.839049 
L 756.249083 32.451538 
L 759.189884 34.336361 
L 762.130686 32.451538 
L 768.012289 43.699996 
L 770.95309 32.451538 
L 773.893892 32.451538 
L 776.834693 34.326281 
L 779.775495 62.447425 
L 782.716296 32.451538 
L 785.657098 32.451538 
L 788.597899 34.326281 
L 791.538701 32.451538 
L 794.479502 51.198968 
L 797.420304 32.451538 
L 800.361105 38.075767 
L 803.301907 34.326281 
L 806.242708 49.324225 
L 809.18351 69.946397 
L 812.124311 32.451538 
L 815.065113 39.95051 
L 818.005914 174.931999 
L 820.946716 32.451538 
L 823.887517 32.451538 
L 826.828319 36.201024 
L 832.709922 36.221183 
L 835.650724 32.451538 
L 838.591525 36.221183 
L 841.532327 36.262157 
L 844.473128 40.072776 
L 847.41393 42.082773 
L 850.354731 36.325317 
L 853.295533 32.451538 
L 856.236334 49.78776 
L 859.177136 34.410069 
L 862.117937 41.92659 
L 865.058739 66.378337 
L 867.99954 32.451538 
L 876.821945 32.451538 
L 879.762746 39.990827 
L 882.703548 32.451538 
L 885.644349 32.451538 
L 888.585151 34.336361 
L 891.525952 83.341737 
L 894.466754 34.336361 
L 897.407555 34.336361 
L 900.348357 32.451538 
L 915.052364 32.451538 
L 917.993166 36.221183 
L 920.933967 32.451538 
L 923.874769 36.221183 
L 926.81557 32.451538 
L 938.578776 32.451538 
L 941.519578 39.990827 
L 944.460379 107.844425 
L 947.401181 32.451538 
L 950.341982 83.341737 
L 953.282784 32.451538 
L 956.223585 51.29976 
L 959.164387 149.310513 
L 962.105188 151.195335 
L 965.04599 34.336361 
L 967.986791 32.451538 
L 970.927593 47.530116 
L 973.868394 32.451538 
L 982.690799 38.106005 
L 985.6316 36.221183 
L 988.572402 134.231935 
L 991.513203 32.451538 
L 994.454005 75.802448 
L 997.394806 115.383714 
L 1000.335608 38.106005 
L 1003.276409 34.336361 
L 1006.217211 36.221183 
L 1009.158012 41.92659 
L 1012.098814 46.238271 
L 1015.039615 47.861513 
L 1017.980417 34.336361 
L 1020.921218 36.241559 
L 1023.86202 41.875649 
L 1026.802821 32.451538 
L 1029.743623 36.201024 
L 1032.684424 36.201024 
L 1035.625226 71.821139 
L 1038.566027 32.451538 
L 1044.44763 36.368599 
L 1047.388432 32.451538 
L 1050.329233 38.39352 
L 1053.270035 38.39352 
L 1056.210836 34.432199 
L 1059.151638 52.370682 
L 1062.092439 50.902955 
L 1065.033241 84.537253 
L 1067.974042 107.269784 
L 1070.914844 46.972476 
L 1073.855646 67.903137 
L 1076.796447 193.953267 
L 1079.737249 36.779649 
L 1082.67805 34.589203 
L 1085.618852 63.613932 
L 1088.559653 117.727006 
L 1091.500455 62.447425 
L 1091.500455 62.447425 
" clip-path="url(#p6149204a4b)" style="fill: none; stroke: #9467bd; stroke-width: 1.5; stroke-linecap: square"/>
   </g>
   <g id="patch_3">
    <path d="M 47.81 390.04 
L 47.81 25.44 
" style="fill: none; stroke: #000000; stroke-width: 0.8; stroke-linejoin: miter; stroke-linecap: square"/>
   </g>
   <g id="patch_4">
    <path d="M 1141.2 390.04 
L 1141.2 25.44 
" style="fill: none; stroke: #000000; stroke-width: 0.8; stroke-linejoin: miter; stroke-linecap: square"/>
   </g>
   <g id="patch_5">
    <path d="M 47.81 390.04 
L 1141.2 390.04 
" style="fill: none; stroke: #000000; stroke-width: 0.8; stroke-linejoin: miter; stroke-linecap: square"/>
   </g>
   <g id="patch_6">
    <path d="M 47.81 25.44 
L 1141.2 25.44 
" style="fill: none; stroke: #000000; stroke-width: 0.8; stroke-linejoin: miter; stroke-linecap: square"/>
   </g>
   <g id="text_17">
    <!-- Biochemical property conservation across alignment -->
    <g transform="translate(436.471563 19.44) scale(0.12 -0.12)">
     <defs>
      <path id="DejaVuSans-42" d="M 1259 2228 
L 1259 519 
L 2272 519 
Q 2781 519 3026 730 
Q 3272 941 3272 1375 
Q 3272 1813 3026 2020 
Q 2781 2228 2272 2228 
L 1259 2228 
z
M 1259 4147 
L 1259 2741 
L 2194 2741 
Q 2656 2741 2882 2914 
Q 3109 3088 3109 3444 
Q 3109 3797 2882 3972 
Q 2656 4147 2194 4147 
L 1259 4147 
z
M 628 4666 
L 2241 4666 
Q 2963 4666 3353 4366 
Q 3744 4066 3744 3513 
Q 3744 3084 3544 2831 
Q 3344 2578 2956 2516 
Q 3422 2416 3680 2098 
Q 3938 1781 3938 1306 
Q 3938 681 3513 340 
Q 3088 0 2303 0 
L 628 0 
L 628 4666 
z
" transform="scale(0.015625)"/>
      <path id="DejaVuSans-68" d="M 3513 2113 
L 3513 0 
L 2938 0 
L 2938 2094 
Q 2938 2591 2744 2837 
Q 2550 3084 2163 3084 
Q 1697 3084 1428 2787 
Q 1159 2491 1159 1978 
L 1159 0 
L 581 0 
L 581 4863 
L 1159 4863 
L 1159 2956 
Q 1366 3272 1645 3428 
Q 1925 3584 2291 3584 
Q 2894 3584 3203 3211 
Q 3513 2838 3513 2113 
z
" transform="scale(0.015625)"/>
      <path id="DejaVuSans-79" d="M 2059 -325 
Q 1816 -950 1584 -1140 
Q 1353 -1331 966 -1331 
L 506 -1331 
L 506 -850 
L 844 -850 
Q 1081 -850 1212 -737 
Q 1344 -625 1503 -206 
L 1606 56 
L 191 3500 
L 800 3500 
L 1894 763 
L 2988 3500 
L 3597 3500 
L 2059 -325 
z
" transform="scale(0.015625)"/>
     </defs>
     <use xlink:href="#DejaVuSans-42"/>
     <use xlink:href="#DejaVuSans-69" transform="translate(68.603516 0)"/>
     <use xlink:href="#DejaVuSans-6f" transform="translate(96.386719 0)"/>
     <use xlink:href="#DejaVuSans-63" transform="translate(157.568359 0)"/>
     <use xlink:href="#DejaVuSans-68" transform="translate(212.548828 0)"/>
     <use xlink:href="#DejaVuSans-65" transform="translate(275.927734 0)"/>
     <use xlink:href="#DejaVuSans-6d" transform="translate(337.451172 0)"/>
     <use xlink:href="#DejaVuSans-69" transform="translate(434.863281 0)"/>
     <use xlink:href="#DejaVuSans-63" transform="translate(462.646484 0)"/>
     <use xlink:href="#DejaVuSans-61" transform="translate(517.626953 0)"/>
     <use xlink:href="#DejaVuSans-6c" transform="translate(578.90625 0)"/>
     <use xlink:href="#DejaVuSans-20" transform="translate(606.689453 0)"/>
     <use xlink:href="#DejaVuSans-70" transform="translate(638.476562 0)"/>
     <use xlink:href="#DejaVuSans-72" transform="translate(701.953125 0)"/>
     <use xlink:href="#DejaVuSans-6f" transform="translate(740.816406 0)"/>
     <use xlink:href="#DejaVuSans-70" transform="translate(801.998047 0)"/>
     <use xlink:href="#DejaVuSans-65" transform="translate(865.474609 0)"/>
     <use xlink:href="#DejaVuSans-72" transform="translate(926.998047 0)"/>
     <use xlink:href="#DejaVuSans-74" transform="translate(968.111328 0)"/>
     <use xlink:href="#DejaVuSans-79" transform="translate(1007.320312 0)"/>
     <use xlink:href="#DejaVuSans-20" transform="translate(1066.5 0)"/>
     <use xlink:href="#DejaVuSans-63" transform="translate(1098.287109 0)"/>
     <use xlink:href="#DejaVuSans-6f" transform="translate(1153.267578 0)"/>
     <use xlink:href="#DejaVuSans-6e" transform="translate(1214.449219 0)"/>
     <use xlink:href="#DejaVuSans-73" transform="translate(1277.828125 0)"/>
     <use xlink:href="#DejaVuSans-65" transform="translate(1329.927734 0)"/>
     <use xlink:href="#DejaVuSans-72" transform="translate(1391.451172 0)"/>
     <use xlink:href="#DejaVuSans-76" transform="translate(1432.564453 0)"/>
     <use xlink:href="#DejaVuSans-61" transform="translate(1491.744141 0)"/>
     <use xlink:href="#DejaVuSans-74" transform="translate(1553.023438 0)"/>
     <use xlink:href="#DejaVuSans-69" transform="translate(1592.232422 0)"/>
     <use xlink:href="#DejaVuSans-6f" transform="translate(1620.015625 0)"/>
     <use xlink:href="#DejaVuSans-6e" transform="translate(1681.197266 0)"/>
     <use xlink:href="#DejaVuSans-20" transform="translate(1744.576172 0)"/>
     <use xlink:href="#DejaVuSans-61" transform="translate(1776.363281 0)"/>
     <use xlink:href="#DejaVuSans-63" transform="translate(1837.642578 0)"/>
     <use xlink:href="#DejaVuSans-72" transform="translate(1892.623047 0)"/>
     <use xlink:href="#DejaVuSans-6f" transform="translate(1931.486328 0)"/>
     <use xlink:href="#DejaVuSans-73" transform="translate(1992.667969 0)"/>
     <use xlink:href="#DejaVuSans-73" transform="translate(2044.767578 0)"/>
     <use xlink:href="#DejaVuSans-20" transform="translate(2096.867188 0)"/>
     <use xlink:href="#DejaVuSans-61" transform="translate(2128.654297 0)"/>
     <use xlink:href="#DejaVuSans-6c" transform="translate(2189.933594 0)"/>
     <use xlink:href="#DejaVuSans-69" transform="translate(2217.716797 0)"/>
     <use xlink:href="#DejaVuSans-67" transform="translate(2245.5 0)"/>
     <use xlink:href="#DejaVuSans-6e" transform="translate(2308.976562 0)"/>
     <use xlink:href="#DejaVuSans-6d" transform="translate(2372.355469 0)"/>
     <use xlink:href="#DejaVuSans-65" transform="translate(2469.767578 0)"/>
     <use xlink:href="#DejaVuSans-6e" transform="translate(2531.291016 0)"/>
     <use xlink:href="#DejaVuSans-74" transform="translate(2594.669922 0)"/>
    </g>
   </g>
   <g id="legend_1">
    <g id="patch_7">
     <path d="M 994.57125 91.665 
L 1135.6 91.665 
Q 1137.2 91.665 1137.2 90.065 
L 1137.2 31.04 
Q 1137.2 29.44 1135.6 29.44 
L 994.57125 29.44 
Q 992.97125 29.44 992.97125 31.04 
L 992.97125 90.065 
Q 992.97125 91.665 994.57125 91.665 
z
" style="fill: #ffffff; opacity: 0.8; stroke: #cccccc; stroke-linejoin: miter"/>
    </g>
    <g id="line2d_20">
     <path d="M 996.17125 35.91875 
L 1004.17125 35.91875 
L 1012.17125 35.91875 
" style="fill: none; stroke: #1f77b4; stroke-width: 1.5; stroke-linecap: square"/>
    </g>
    <g id="text_18">
     <!-- hydrophobicity_conservation -->
     <g transform="translate(1018.57125 38.71875) scale(0.08 -0.08)">
      <defs>
       <path id="DejaVuSans-64" d="M 2906 2969 
L 2906 4863 
L 3481 4863 
L 3481 0 
L 2906 0 
L 2906 525 
Q 2725 213 2448 61 
Q 2172 -91 1784 -91 
Q 1150 -91 751 415 
Q 353 922 353 1747 
Q 353 2572 751 3078 
Q 1150 3584 1784 3584 
Q 2172 3584 2448 3432 
Q 2725 3281 2906 2969 
z
M 947 1747 
Q 947 1113 1208 752 
Q 1469 391 1925 391 
Q 2381 391 2643 752 
Q 2906 1113 2906 1747 
Q 2906 2381 2643 2742 
Q 2381 3103 1925 3103 
Q 1469 3103 1208 2742 
Q 947 2381 947 1747 
z
" transform="scale(0.015625)"/>
       <path id="DejaVuSans-62" d="M 3116 1747 
Q 3116 2381 2855 2742 
Q 2594 3103 2138 3103 
Q 1681 3103 1420 2742 
Q 1159 2381 1159 1747 
Q 1159 1113 1420 752 
Q 1681 391 2138 391 
Q 2594 391 2855 752 
Q 3116 1113 3116 1747 
z
M 1159 2969 
Q 1341 3281 1617 3432 
Q 1894 3584 2278 3584 
Q 2916 3584 3314 3078 
Q 3713 2572 3713 1747 
Q 3713 922 3314 415 
Q 2916 -91 2278 -91 
Q 1894 -91 1617 61 
Q 1341 213 1159 525 
L 1159 0 
L 581 0 
L 581 4863 
L 1159 4863 
L 1159 2969 
z
" transform="scale(0.015625)"/>
       <path id="DejaVuSans-5f" d="M 3263 -1063 
L 3263 -1509 
L -63 -1509 
L -63 -1063 
L 3263 -1063 
z
" transform="scale(0.015625)"/>
      </defs>
      <use xlink:href="#DejaVuSans-68"/>
      <use xlink:href="#DejaVuSans-79" transform="translate(63.378906 0)"/>
      <use xlink:href="#DejaVuSans-64" transform="translate(122.558594 0)"/>
      <use xlink:href="#DejaVuSans-72" transform="translate(186.035156 0)"/>
      <use xlink:href="#DejaVuSans-6f" transform="translate(224.898438 0)"/>
      <use xlink:href="#DejaVuSans-70" transform="translate(286.080078 0)"/>
      <use xlink:href="#DejaVuSans-68" transform="translate(349.556641 0)"/>
      <use xlink:href="#DejaVuSans-6f" transform="translate(412.935547 0)"/>
      <use xlink:href="#DejaVuSans-62" transform="translate(474.117188 0)"/>
      <use xlink:href="#DejaVuSans-69" transform="translate(537.59375 0)"/>
      <use xlink:href="#DejaVuSans-63" transform="translate(565.376953 0)"/>
      <use xlink:href="#DejaVuSans-69" transform="translate(620.357422 0)"/>
      <use xlink:href="#DejaVuSans-74" transform="translate(648.140625 0)"/>
      <use xlink:href="#DejaVuSans-79" transform="translate(687.349609 0)"/>
      <use xlink:href="#DejaVuSans-5f" transform="translate(746.529297 0)"/>
      <use xlink:href="#DejaVuSans-63" transform="translate(796.529297 0)"/>
      <use xlink:href="#DejaVuSans-6f" transform="translate(851.509766 0)"/>
      <use xlink:href="#DejaVuSans-6e" transform="translate(912.691406 0)"/>
      <use xlink:href="#DejaVuSans-73" transform="translate(976.070312 0)"/>
      <use xlink:href="#DejaVuSans-65" transform="translate(1028.169922 0)"/>
      <use xlink:href="#DejaVuSans-72" transform="translate(1089.693359 0)"/>
      <use xlink:href="#DejaVuSans-76" transform="translate(1130.806641 0)"/>
      <use xlink:href="#DejaVuSans-61" transform="translate(1189.986328 0)"/>
      <use xlink:href="#DejaVuSans-74" transform="translate(1251.265625 0)"/>
      <use xlink:href="#DejaVuSans-69" transform="translate(1290.474609 0)"/>
      <use xlink:href="#DejaVuSans-6f" transform="translate(1318.257812 0)"/>
      <use xlink:href="#DejaVuSans-6e" transform="translate(1379.439453 0)"/>
     </g>
    </g>
    <g id="line2d_21">
     <path d="M 996.17125 47.88375 
L 1004.17125 47.88375 
L 1012.17125 47.88375 
" style="fill: none; stroke: #ff7f0e; stroke-width: 1.5; stroke-linecap: square"/>
    </g>
    <g id="text_19">
     <!-- charge_conservation -->
     <g transform="translate(1018.57125 50.68375) scale(0.08 -0.08)">
      <use xlink:href="#DejaVuSans-63"/>
      <use xlink:href="#DejaVuSans-68" transform="translate(54.980469 0)"/>
      <use xlink:href="#DejaVuSans-61" transform="translate(118.359375 0)"/>
      <use xlink:href="#DejaVuSans-72" transform="translate(179.638672 0)"/>
      <use xlink:href="#DejaVuSans-67" transform="translate(219.001953 0)"/>
      <use xlink:href="#DejaVuSans-65" transform="translate(282.478516 0)"/>
      <use xlink:href="#DejaVuSans-5f" transform="translate(344.001953 0)"/>
      <use xlink:href="#DejaVuSans-63" transform="translate(394.001953 0)"/>
      <use xlink:href="#DejaVuSans-6f" transform="translate(448.982422 0)"/>
      <use xlink:href="#DejaVuSans-6e" transform="translate(510.164062 0)"/>
      <use xlink:href="#DejaVuSans-73" transform="translate(573.542969 0)"/>
      <use xlink:href="#DejaVuSans-65" transform="translate(625.642578 0)"/>
      <use xlink:href="#DejaVuSans-72" transform="translate(687.166016 0)"/>
      <use xlink:href="#DejaVuSans-76" transform="translate(728.279297 0)"/>
      <use xlink:href="#DejaVuSans-61" transform="translate(787.458984 0)"/>
      <use xlink:href="#DejaVuSans-74" transform="translate(848.738281 0)"/>
      <use xlink:href="#DejaVuSans-69" transform="translate(887.947266 0)"/>
      <use xlink:href="#DejaVuSans-6f" transform="translate(915.730469 0)"/>
      <use xlink:href="#DejaVuSans-6e" transform="translate(976.912109 0)"/>
     </g>
    </g>
    <g id="line2d_22">
     <path d="M 996.17125 59.84875 
L 1004.17125 59.84875 
L 1012.17125 59.84875 
" style="fill: none; stroke: #2ca02c; stroke-width: 1.5; stroke-linecap: square"/>
    </g>
    <g id="text_20">
     <!-- polarity_conservation -->
     <g transform="translate(1018.57125 62.64875) scale(0.08 -0.08)">
      <use xlink:href="#DejaVuSans-70"/>
      <use xlink:href="#DejaVuSans-6f" transform="translate(63.476562 0)"/>
      <use xlink:href="#DejaVuSans-6c" transform="translate(124.658203 0)"/>
      <use xlink:href="#DejaVuSans-61" transform="translate(152.441406 0)"/>
      <use xlink:href="#DejaVuSans-72" transform="translate(213.720703 0)"/>
      <use xlink:href="#DejaVuSans-69" transform="translate(254.833984 0)"/>
      <use xlink:href="#DejaVuSans-74" transform="translate(282.617188 0)"/>
      <use xlink:href="#DejaVuSans-79" transform="translate(321.826172 0)"/>
      <use xlink:href="#DejaVuSans-5f" transform="translate(381.005859 0)"/>
      <use xlink:href="#DejaVuSans-63" transform="translate(431.005859 0)"/>
      <use xlink:href="#DejaVuSans-6f" transform="translate(485.986328 0)"/>
      <use xlink:href="#DejaVuSans-6e" transform="translate(547.167969 0)"/>
      <use xlink:href="#DejaVuSans-73" transform="translate(610.546875 0)"/>
      <use xlink:href="#DejaVuSans-65" transform="translate(662.646484 0)"/>
      <use xlink:href="#DejaVuSans-72" transform="translate(724.169922 0)"/>
      <use xlink:href="#DejaVuSans-76" transform="translate(765.283203 0)"/>
      <use xlink:href="#DejaVuSans-61" transform="translate(824.462891 0)"/>
      <use xlink:href="#DejaVuSans-74" transform="translate(885.742188 0)"/>
      <use xlink:href="#DejaVuSans-69" transform="translate(924.951172 0)"/>
      <use xlink:href="#DejaVuSans-6f" transform="translate(952.734375 0)"/>
      <use xlink:href="#DejaVuSans-6e" transform="translate(1013.916016 0)"/>
     </g>
    </g>
    <g id="line2d_23">
     <path d="M 996.17125 71.81375 
L 1004.17125 71.81375 
L 1012.17125 71.81375 
" style="fill: none; stroke: #d62728; stroke-width: 1.5; stroke-linecap: square"/>
    </g>
    <g id="text_21">
     <!-- size_conservation -->
     <g transform="translate(1018.57125 74.61375) scale(0.08 -0.08)">
      <defs>
       <path id="DejaVuSans-7a" d="M 353 3500 
L 3084 3500 
L 3084 2975 
L 922 459 
L 3084 459 
L 3084 0 
L 275 0 
L 275 525 
L 2438 3041 
L 353 3041 
L 353 3500 
z
" transform="scale(0.015625)"/>
      </defs>
      <use xlink:href="#DejaVuSans-73"/>
      <use xlink:href="#DejaVuSans-69" transform="translate(52.099609 0)"/>
      <use xlink:href="#DejaVuSans-7a" transform="translate(79.882812 0)"/>
      <use xlink:href="#DejaVuSans-65" transform="translate(132.373047 0)"/>
      <use xlink:href="#DejaVuSans-5f" transform="translate(193.896484 0)"/>
      <use xlink:href="#DejaVuSans-63" transform="translate(243.896484 0)"/>
      <use xlink:href="#DejaVuSans-6f" transform="translate(298.876953 0)"/>
      <use xlink:href="#DejaVuSans-6e" transform="translate(360.058594 0)"/>
      <use xlink:href="#DejaVuSans-73" transform="translate(423.4375 0)"/>
      <use xlink:href="#DejaVuSans-65" transform="translate(475.537109 0)"/>
      <use xlink:href="#DejaVuSans-72" transform="translate(537.060547 0)"/>
      <use xlink:href="#DejaVuSans-76" transform="translate(578.173828 0)"/>
      <use xlink:href="#DejaVuSans-61" transform="translate(637.353516 0)"/>
      <use xlink:href="#DejaVuSans-74" transform="translate(698.632812 0)"/>
      <use xlink:href="#DejaVuSans-69" transform="translate(737.841797 0)"/>
      <use xlink:href="#DejaVuSans-6f" transform="translate(765.625 0)"/>
      <use xlink:href="#DejaVuSans-6e" transform="translate(826.806641 0)"/>
     </g>
    </g>
    <g id="line2d_24">
     <path d="M 996.17125 83.77875 
L 1004.17125 83.77875 
L 1012.17125 83.77875 
" style="fill: none; stroke: #9467bd; stroke-width: 1.5; stroke-linecap: square"/>
    </g>
    <g id="text_22">
     <!-- aromaticity_conservation -->
     <g transform="translate(1018.57125 86.57875) scale(0.08 -0.08)">
      <use xlink:href="#DejaVuSans-61"/>
      <use xlink:href="#DejaVuSans-72" transform="translate(61.279297 0)"/>
      <use xlink:href="#DejaVuSans-6f" transform="translate(100.142578 0)"/>
      <use xlink:href="#DejaVuSans-6d" transform="translate(161.324219 0)"/>
      <use xlink:href="#DejaVuSans-61" transform="translate(258.736328 0)"/>
      <use xlink:href="#DejaVuSans-74" transform="translate(320.015625 0)"/>
      <use xlink:href="#DejaVuSans-69" transform="translate(359.224609 0)"/>
      <use xlink:href="#DejaVuSans-63" transform="translate(387.007812 0)"/>
      <use xlink:href="#DejaVuSans-69" transform="translate(441.988281 0)"/>
      <use xlink:href="#DejaVuSans-74" transform="translate(469.771484 0)"/>
      <use xlink:href="#DejaVuSans-79" transform="translate(508.980469 0)"/>
      <use xlink:href="#DejaVuSans-5f" transform="translate(568.160156 0)"/>
      <use xlink:href="#DejaVuSans-63" transform="translate(618.160156 0)"/>
      <use xlink:href="#DejaVuSans-6f" transform="translate(673.140625 0)"/>
      <use xlink:href="#DejaVuSans-6e" transform="translate(734.322266 0)"/>
      <use xlink:href="#DejaVuSans-73" transform="translate(797.701172 0)"/>
      <use xlink:href="#DejaVuSans-65" transform="translate(849.800781 0)"/>
      <use xlink:href="#DejaVuSans-72" transform="translate(911.324219 0)"/>
      <use xlink:href="#DejaVuSans-76" transform="translate(952.4375 0)"/>
      <use xlink:href="#DejaVuSans-61" transform="translate(1011.617188 0)"/>
      <use xlink:href="#DejaVuSans-74" transform="translate(1072.896484 0)"/>
      <use xlink:href="#DejaVuSans-69" transform="translate(1112.105469 0)"/>
      <use xlink:href="#DejaVuSans-6f" transform="translate(1139.888672 0)"/>
      <use xlink:href="#DejaVuSans-6e" transform="translate(1201.070312 0)"/>
     </g>
    </g>
   </g>
  </g>
 </g>
 <defs>
  <clipPath id="p6149204a4b">
   <rect x="47.81" y="25.44" width="1093.39" height="364.6"/>
  </clipPath>
 </defs>
</svg>
